<svg xmlns="http://www.w3.org/2000/svg" width="246.54220581054688" height="311.2042541503906" viewBox="-89.38822937011719 -135.91030883789062 246.54220581054688 311.2042541503906"><title>Neo4j Graph Visualization</title><desc>Created using Neo4j (http://www.neo4j.com/)</desc><g class="layer relationships"><g class="relationship" transform="translate(128.15397242479543 38.596368907030495) rotate(250.67575266348263)"><path class="b-outline" fill="#A5ABB6" stroke="none" d="M 25 0.5 L 40.59689626634925 0.5 L 40.59689626634925 -0.5 L 25 -0.5 Z M 106.59689626634925 0.5 L 122.1937925326985 0.5 L 122.1937925326985 3.5 L 129.1937925326985 0 L 122.1937925326985 -3.5 L 122.1937925326985 -0.5 L 106.59689626634925 -0.5 Z"/><text text-anchor="middle" pointer-events="none" font-size="8px" fill="#000000" x="73.59689626634925" y="3" transform="rotate(180 73.59689626634925 0)" font-family="Helvetica Neue, Helvetica, Arial, sans-serif">FRIENDS_WITH</text></g><g class="relationship" transform="translate(128.15397242479543 38.596368907030495) rotate(494.58760692766197)"><path class="b-outline" fill="#A5ABB6" stroke="none" d="M 25 0.5 L 39.11143209707619 0.5 L 39.11143209707619 -0.5 L 25 -0.5 Z M 105.11143209707619 0.5 L 119.22286419415238 0.5 L 119.22286419415238 3.5 L 126.22286419415238 0 L 119.22286419415238 -3.5 L 119.22286419415238 -0.5 L 105.11143209707619 -0.5 Z"/><text text-anchor="middle" pointer-events="none" font-size="8px" fill="#000000" x="72.11143209707619" y="3" transform="rotate(180 72.11143209707619 0)" font-family="Helvetica Neue, Helvetica, Arial, sans-serif">FRIENDS_WITH</text></g><g class="relationship" transform="translate(77.1291223394757 -106.9102987387771) rotate(520.5953344086774)"><path class="b-outline" fill="#A5ABB6" stroke="none" d="M 25 0.5 L 36.39969610765698 0.5 L 36.39969610765698 -0.5 L 25 -0.5 Z M 102.39969610765698 0.5 L 113.79939221531396 0.5 L 113.79939221531396 3.5 L 120.79939221531396 0 L 113.79939221531396 -3.5 L 113.79939221531396 -0.5 L 102.39969610765698 -0.5 Z"/><text text-anchor="middle" pointer-events="none" font-size="8px" fill="#000000" x="69.39969610765698" y="3" transform="rotate(180 69.39969610765698 0)" font-family="Helvetica Neue, Helvetica, Arial, sans-serif">FRIENDS_WITH</text></g><g class="relationship" transform="translate(21.995669142824596 146.29395151395886) rotate(265.2756610191522)"><path class="b-outline" fill="#A5ABB6" stroke="none" d="M 25 0.5 L 36.36879513599584 0.5 L 36.36879513599584 -0.5 L 25 -0.5 Z M 102.36879513599584 0.5 L 113.73759027199168 0.5 L 113.73759027199168 3.5 L 120.73759027199168 0 L 113.73759027199168 -3.5 L 113.73759027199168 -0.5 L 102.36879513599584 -0.5 Z"/><text text-anchor="middle" pointer-events="none" font-size="8px" fill="#000000" x="69.36879513599584" y="3" transform="rotate(180 69.36879513599584 0)" font-family="Helvetica Neue, Helvetica, Arial, sans-serif">FRIENDS_WITH</text></g></g><g class="layer nodes"><g class="node" aria-label="graph-node7865" transform="translate(128.15397242479543,38.596368907030495)"><circle class="b-outline" cx="0" cy="0" r="25" fill="#F16667" stroke="#eb2728" stroke-width="2px"/><text class="caption" text-anchor="middle" pointer-events="none" x="0" y="5" font-size="10px" fill="#FFFFFF" font-family="Helvetica Neue, Helvetica, Arial, sans-serif"> Joe</text></g><g class="node" aria-label="graph-node7868" transform="translate(77.1291223394757,-106.9102987387771)"><circle class="b-outline" cx="0" cy="0" r="25" fill="#F16667" stroke="#eb2728" stroke-width="2px"/><text class="caption" text-anchor="middle" pointer-events="none" x="0" y="5" font-size="10px" fill="#FFFFFF" font-family="Helvetica Neue, Helvetica, Arial, sans-serif"> Jill</text></g><g class="node" aria-label="graph-node7866" transform="translate(21.995669142824596,146.29395151395886)"><circle class="b-outline" cx="0" cy="0" r="25" fill="#F16667" stroke="#eb2728" stroke-width="2px"/><text class="caption" text-anchor="middle" pointer-events="none" x="0" y="5" font-size="10px" fill="#FFFFFF" font-family="Helvetica Neue, Helvetica, Arial, sans-serif"> Jack</text></g><g class="node" aria-label="graph-node7869" transform="translate(-60.38822389583909,-58.47020940409989)"><circle class="b-outline" cx="0" cy="0" r="25" fill="#F16667" stroke="#eb2728" stroke-width="2px"/><text class="caption" text-anchor="middle" pointer-events="none" x="0" y="5" font-size="10px" fill="#FFFFFF" font-family="Helvetica Neue, Helvetica, Arial, sans-serif"> Jane</text></g><g class="node" aria-label="graph-node7870" transform="translate(9.992448947719794,1.05150619154373)"><circle class="b-outline" cx="0" cy="0" r="25" fill="#F16667" stroke="#eb2728" stroke-width="2px"/><text class="caption" text-anchor="middle" pointer-events="none" x="0" y="5" font-size="10px" fill="#FFFFFF" font-family="Helvetica Neue, Helvetica, Arial, sans-serif"> Janice</text></g></g></svg>