<svg xmlns="http://www.w3.org/2000/svg" width="1021.4423828125" height="894.0621337890625" viewBox="-440.973388671875 -381.8677062988281 1021.4423828125 894.0621337890625"><title>Neo4j Graph Visualization</title><desc>Created using Neo4j (http://www.neo4j.com/)</desc><g class="layer relationships"><g class="relationship" transform="translate(-264.63229379291255 334.97225918261313) rotate(242.20210020925794)"><path class="b-outline" fill="#A5ABB6" stroke="none" d="M 25 0.5 L 81.54525981018138 0.5 L 81.54525981018138 -0.5 L 25 -0.5 Z M 128.4436973101814 0.5 L 184.98895712036276 0.5 L 184.98895712036276 3.5 L 191.98895712036276 0 L 184.98895712036276 -3.5 L 184.98895712036276 -0.5 L 128.4436973101814 -0.5 Z"/><text text-anchor="middle" pointer-events="none" font-size="8px" fill="#000000" x="104.99447856018138" y="3" transform="rotate(180 104.99447856018138 0)" font-family="Helvetica Neue, Helvetica, Arial, sans-serif">IN_GENRE</text></g><g class="relationship" transform="translate(-264.63229379291255 334.97225918261313) rotate(459.04136246209646)"><path class="b-outline" fill="#A5ABB6" stroke="none" d="M 25 0.5 L 48.094256011217865 0.5 L 48.094256011217865 -0.5 L 25 -0.5 Z M 94.99269351121787 0.5 L 118.08694952243573 0.5 L 118.08694952243573 3.5 L 125.08694952243573 0 L 118.08694952243573 -3.5 L 118.08694952243573 -0.5 L 94.99269351121787 -0.5 Z"/><text text-anchor="middle" pointer-events="none" font-size="8px" fill="#000000" x="71.54347476121787" y="3" transform="rotate(180 71.54347476121787 0)" font-family="Helvetica Neue, Helvetica, Arial, sans-serif">IN_GENRE</text></g><g class="relationship" transform="translate(-264.63229379291255 334.97225918261313) rotate(358.4647806841847)"><path class="b-outline" fill="#A5ABB6" stroke="none" d="M 25 0.5 L 74.1897559589788 0.5 L 74.1897559589788 -0.5 L 25 -0.5 Z M 121.0881934589788 0.5 L 170.2779494179576 0.5 L 170.2779494179576 3.5 L 177.2779494179576 0 L 170.2779494179576 -3.5 L 170.2779494179576 -0.5 L 121.0881934589788 -0.5 Z"/><text text-anchor="middle" pointer-events="none" font-size="8px" fill="#000000" x="97.6389747089788" y="3" font-family="Helvetica Neue, Helvetica, Arial, sans-serif">IN_GENRE</text></g><g class="relationship" transform="translate(241.37374140877054 134.7169980241603) rotate(180.08518383828329)"><path class="b-outline" fill="#A5ABB6" stroke="none" d="M 25 0.5 L 71.27961729070014 0.5 L 71.27961729070014 -0.5 L 25 -0.5 Z M 118.17805479070014 0.5 L 164.4576720814003 0.5 L 164.4576720814003 3.5 L 171.4576720814003 0 L 164.4576720814003 -3.5 L 164.4576720814003 -0.5 L 118.17805479070014 -0.5 Z"/><text text-anchor="middle" pointer-events="none" font-size="8px" fill="#000000" x="94.72883604070014" y="3" transform="rotate(180 94.72883604070014 0)" font-family="Helvetica Neue, Helvetica, Arial, sans-serif">IN_GENRE</text></g><g class="relationship" transform="translate(241.37374140877054 134.7169980241603) rotate(247.0633586114127)"><path class="b-outline" fill="#A5ABB6" stroke="none" d="M 25 0.5 L 75.74816278683315 0.5 L 75.74816278683315 -0.5 L 25 -0.5 Z M 122.64660028683315 0.5 L 173.3947630736663 0.5 L 173.3947630736663 3.5 L 180.3947630736663 0 L 173.3947630736663 -3.5 L 173.3947630736663 -0.5 L 122.64660028683315 -0.5 Z"/><text text-anchor="middle" pointer-events="none" font-size="8px" fill="#000000" x="99.19738153683315" y="3" transform="rotate(180 99.19738153683315 0)" font-family="Helvetica Neue, Helvetica, Arial, sans-serif">IN_GENRE</text></g><g class="relationship" transform="translate(332.65508020957213 -46.31301333646431) rotate(182.71533264226753)"><path class="b-outline" fill="#A5ABB6" stroke="none" d="M 25 0.5 L 58.810241162381516 0.5 L 58.810241162381516 -0.5 L 25 -0.5 Z M 105.70867866238152 0.5 L 139.51891982476303 0.5 L 139.51891982476303 3.5 L 146.51891982476303 0 L 139.51891982476303 -3.5 L 139.51891982476303 -0.5 L 105.70867866238152 -0.5 Z"/><text text-anchor="middle" pointer-events="none" font-size="8px" fill="#000000" x="82.25945991238152" y="3" transform="rotate(180 82.25945991238152 0)" font-family="Helvetica Neue, Helvetica, Arial, sans-serif">IN_GENRE</text></g><g class="relationship" transform="translate(290.6157600751797 43.68856641151348) rotate(217.19799883556783)"><path class="b-outline" fill="#A5ABB6" stroke="none" d="M 25 0.5 L 54.20504405536802 0.5 L 54.20504405536802 -0.5 L 25 -0.5 Z M 101.10348155536802 0.5 L 130.30852561073604 0.5 L 130.30852561073604 3.5 L 137.30852561073604 0 L 130.30852561073604 -3.5 L 130.30852561073604 -0.5 L 101.10348155536802 -0.5 Z"/><text text-anchor="middle" pointer-events="none" font-size="8px" fill="#000000" x="77.65426280536802" y="3" transform="rotate(180 77.65426280536802 0)" font-family="Helvetica Neue, Helvetica, Arial, sans-serif">IN_GENRE</text></g><g class="relationship" transform="translate(428.2323194204997 -160.36358855707803) rotate(324.5650971190607)"><path class="b-outline" fill="#A5ABB6" stroke="none" d="M 25 0.5 L 48.677009652106435 0.5 L 48.677009652106435 -0.5 L 25 -0.5 Z M 95.57544715210643 0.5 L 119.25245680421287 0.5 L 119.25245680421287 3.5 L 126.25245680421287 0 L 119.25245680421287 -3.5 L 119.25245680421287 -0.5 L 95.57544715210643 -0.5 Z"/><text text-anchor="middle" pointer-events="none" font-size="8px" fill="#000000" x="72.12622840210643" y="3" font-family="Helvetica Neue, Helvetica, Arial, sans-serif">IN_GENRE</text></g><g class="relationship" transform="translate(428.2323194204997 -160.36358855707803) rotate(521.3633935233806)"><path class="b-outline" fill="#A5ABB6" stroke="none" d="M 25 0.5 L 67.36062461821268 0.5 L 67.36062461821268 -0.5 L 25 -0.5 Z M 114.25906211821268 0.5 L 156.61968673642536 0.5 L 156.61968673642536 3.5 L 163.61968673642536 0 L 156.61968673642536 -3.5 L 156.61968673642536 -0.5 L 114.25906211821268 -0.5 Z"/><text text-anchor="middle" pointer-events="none" font-size="8px" fill="#000000" x="90.80984336821268" y="3" transform="rotate(180 90.80984336821268 0)" font-family="Helvetica Neue, Helvetica, Arial, sans-serif">IN_GENRE</text></g><g class="relationship" transform="translate(-11.8701506160041 475.0100022443597) rotate(250.8339792414597)"><path class="b-outline" fill="#A5ABB6" stroke="none" d="M 25 0.5 L 50.04712191863277 0.5 L 50.04712191863277 -0.5 L 25 -0.5 Z M 96.94555941863277 0.5 L 121.99268133726554 0.5 L 121.99268133726554 3.5 L 128.99268133726554 0 L 121.99268133726554 -3.5 L 121.99268133726554 -0.5 L 96.94555941863277 -0.5 Z"/><text text-anchor="middle" pointer-events="none" font-size="8px" fill="#000000" x="73.49634066863277" y="3" transform="rotate(180 73.49634066863277 0)" font-family="Helvetica Neue, Helvetica, Arial, sans-serif">IN_GENRE</text></g><g class="relationship" transform="translate(-39.532649698606086 -143.6255498199221) rotate(519.5047331928507)"><path class="b-outline" fill="#A5ABB6" stroke="none" d="M 25 0.5 L 78.97558096348251 0.5 L 78.97558096348251 -0.5 L 25 -0.5 Z M 125.87401846348251 0.5 L 179.84959942696503 0.5 L 179.84959942696503 3.5 L 186.84959942696503 0 L 179.84959942696503 -3.5 L 179.84959942696503 -0.5 L 125.87401846348251 -0.5 Z"/><text text-anchor="middle" pointer-events="none" font-size="8px" fill="#000000" x="102.42479971348251" y="3" transform="rotate(180 102.42479971348251 0)" font-family="Helvetica Neue, Helvetica, Arial, sans-serif">IN_GENRE</text></g><g class="relationship" transform="translate(-39.532649698606086 -143.6255498199221) rotate(383.94231367639406)"><path class="b-outline" fill="#A5ABB6" stroke="none" d="M 25 0.5 L 82.93665906077143 0.5 L 82.93665906077143 -0.5 L 25 -0.5 Z M 129.83509656077143 0.5 L 187.77175562154287 0.5 L 187.77175562154287 3.5 L 194.77175562154287 0 L 187.77175562154287 -3.5 L 187.77175562154287 -0.5 L 129.83509656077143 -0.5 Z"/><text text-anchor="middle" pointer-events="none" font-size="8px" fill="#000000" x="106.38587781077143" y="3" font-family="Helvetica Neue, Helvetica, Arial, sans-serif">IN_GENRE</text></g><g class="relationship" transform="translate(-39.532649698606086 -143.6255498199221) rotate(284.22295093221965)"><path class="b-outline" fill="#A5ABB6" stroke="none" d="M 25 0.5 L 59.06076426985484 0.5 L 59.06076426985484 -0.5 L 25 -0.5 Z M 105.95920176985484 0.5 L 140.0199660397097 0.5 L 140.0199660397097 3.5 L 147.0199660397097 0 L 140.0199660397097 -3.5 L 140.0199660397097 -0.5 L 105.95920176985484 -0.5 Z"/><text text-anchor="middle" pointer-events="none" font-size="8px" fill="#000000" x="82.50998301985484" y="3" font-family="Helvetica Neue, Helvetica, Arial, sans-serif">IN_GENRE</text></g><g class="relationship" transform="translate(270.9098053147557 -204.05344511053374) rotate(486.2198175376954)"><path class="b-outline" fill="#A5ABB6" stroke="none" d="M 25 0.5 L 65.77704484544968 0.5 L 65.77704484544968 -0.5 L 25 -0.5 Z M 112.67548234544968 0.5 L 153.45252719089936 0.5 L 153.45252719089936 3.5 L 160.45252719089936 0 L 153.45252719089936 -3.5 L 153.45252719089936 -0.5 L 112.67548234544968 -0.5 Z"/><text text-anchor="middle" pointer-events="none" font-size="8px" fill="#000000" x="89.22626359544968" y="3" transform="rotate(180 89.22626359544968 0)" font-family="Helvetica Neue, Helvetica, Arial, sans-serif">IN_GENRE</text></g><g class="relationship" transform="translate(270.9098053147557 -204.05344511053374) rotate(287.73841545212287)"><path class="b-outline" fill="#A5ABB6" stroke="none" d="M 25 0.5 L 51.171997181794126 0.5 L 51.171997181794126 -0.5 L 25 -0.5 Z M 98.07043468179413 0.5 L 124.24243186358825 0.5 L 124.24243186358825 3.5 L 131.24243186358825 0 L 124.24243186358825 -3.5 L 124.24243186358825 -0.5 L 98.07043468179413 -0.5 Z"/><text text-anchor="middle" pointer-events="none" font-size="8px" fill="#000000" x="74.62121593179413" y="3" font-family="Helvetica Neue, Helvetica, Arial, sans-serif">IN_GENRE</text></g><g class="relationship" transform="translate(143.21968500566783 151.67091982153045) rotate(275.0211900462805)"><path class="b-outline" fill="#A5ABB6" stroke="none" d="M 25 0.5 L 76.50250232024253 0.5 L 76.50250232024253 -0.5 L 25 -0.5 Z M 123.40093982024253 0.5 L 174.90344214048505 0.5 L 174.90344214048505 3.5 L 181.90344214048505 0 L 174.90344214048505 -3.5 L 174.90344214048505 -0.5 L 123.40093982024253 -0.5 Z"/><text text-anchor="middle" pointer-events="none" font-size="8px" fill="#000000" x="99.95172107024253" y="3" font-family="Helvetica Neue, Helvetica, Arial, sans-serif">IN_GENRE</text></g><g class="relationship" transform="translate(143.21968500566783 151.67091982153045) rotate(499.14056385343576)"><path class="b-outline" fill="#A5ABB6" stroke="none" d="M 25 0.5 L 109.00348849847043 0.5 L 109.00348849847043 -0.5 L 25 -0.5 Z M 155.90192599847043 0.5 L 239.90541449694086 0.5 L 239.90541449694086 3.5 L 246.90541449694086 0 L 239.90541449694086 -3.5 L 239.90541449694086 -0.5 L 155.90192599847043 -0.5 Z"/><text text-anchor="middle" pointer-events="none" font-size="8px" fill="#000000" x="132.45270724847043" y="3" transform="rotate(180 132.45270724847043 0)" font-family="Helvetica Neue, Helvetica, Arial, sans-serif">IN_GENRE</text></g><g class="relationship" transform="translate(143.21968500566783 151.67091982153045) rotate(292.887727561363)"><path class="b-outline" fill="#A5ABB6" stroke="none" d="M 25 0.5 L 109.68751458239458 0.5 L 109.68751458239458 -0.5 L 25 -0.5 Z M 156.58595208239458 0.5 L 241.27346666478917 0.5 L 241.27346666478917 3.5 L 248.27346666478917 0 L 241.27346666478917 -3.5 L 241.27346666478917 -0.5 L 156.58595208239458 -0.5 Z"/><text text-anchor="middle" pointer-events="none" font-size="8px" fill="#000000" x="133.13673333239458" y="3" font-family="Helvetica Neue, Helvetica, Arial, sans-serif">IN_GENRE</text></g><g class="relationship" transform="translate(153.77946937842947 -241.7167219497864) rotate(539.372011402244)"><path class="b-outline" fill="#A5ABB6" stroke="none" d="M 25 0.5 L 83.08914010662903 0.5 L 83.08914010662903 -0.5 L 25 -0.5 Z M 129.98757760662903 0.5 L 188.07671771325806 0.5 L 188.07671771325806 3.5 L 195.07671771325806 0 L 188.07671771325806 -3.5 L 188.07671771325806 -0.5 L 129.98757760662903 -0.5 Z"/><text text-anchor="middle" pointer-events="none" font-size="8px" fill="#000000" x="106.53835885662903" y="3" transform="rotate(180 106.53835885662903 0)" font-family="Helvetica Neue, Helvetica, Arial, sans-serif">IN_GENRE</text></g><g class="relationship" transform="translate(153.77946937842947 -241.7167219497864) rotate(447.6916318195093)"><path class="b-outline" fill="#A5ABB6" stroke="none" d="M 25 0.5 L 66.76593542051941 0.5 L 66.76593542051941 -0.5 L 25 -0.5 Z M 113.66437292051941 0.5 L 155.43030834103882 0.5 L 155.43030834103882 3.5 L 162.43030834103882 0 L 155.43030834103882 -3.5 L 155.43030834103882 -0.5 L 113.66437292051941 -0.5 Z"/><text text-anchor="middle" pointer-events="none" font-size="8px" fill="#000000" x="90.21515417051941" y="3" font-family="Helvetica Neue, Helvetica, Arial, sans-serif">IN_GENRE</text></g><g class="relationship" transform="translate(153.77946937842947 -241.7167219497864) rotate(415.9462746265655)"><path class="b-outline" fill="#A5ABB6" stroke="none" d="M 25 0.5 L 58.52280470757812 0.5 L 58.52280470757812 -0.5 L 25 -0.5 Z M 105.42124220757812 0.5 L 138.94404691515624 0.5 L 138.94404691515624 3.5 L 145.94404691515624 0 L 138.94404691515624 -3.5 L 138.94404691515624 -0.5 L 105.42124220757812 -0.5 Z"/><text text-anchor="middle" pointer-events="none" font-size="8px" fill="#000000" x="81.97202345757812" y="3" font-family="Helvetica Neue, Helvetica, Arial, sans-serif">IN_GENRE</text></g><g class="relationship" transform="translate(94.35827708018955 322.38975039368387) rotate(255.2628343129918)"><path class="b-outline" fill="#A5ABB6" stroke="none" d="M 25 0.5 L 70.2301116732839 0.5 L 70.2301116732839 -0.5 L 25 -0.5 Z M 117.1285491732839 0.5 L 162.3586608465678 0.5 L 162.3586608465678 3.5 L 169.3586608465678 0 L 162.3586608465678 -3.5 L 162.3586608465678 -0.5 L 117.1285491732839 -0.5 Z"/><text text-anchor="middle" pointer-events="none" font-size="8px" fill="#000000" x="93.6793304232839" y="3" transform="rotate(180 93.6793304232839 0)" font-family="Helvetica Neue, Helvetica, Arial, sans-serif">IN_GENRE</text></g><g class="relationship" transform="translate(94.35827708018955 322.38975039368387) rotate(537.3840930066815)"><path class="b-outline" fill="#A5ABB6" stroke="none" d="M 25 0.5 L 51.52517152834156 0.5 L 51.52517152834156 -0.5 L 25 -0.5 Z M 98.42360902834156 0.5 L 124.94878055668312 0.5 L 124.94878055668312 3.5 L 131.94878055668312 0 L 124.94878055668312 -3.5 L 124.94878055668312 -0.5 L 98.42360902834156 -0.5 Z"/><text text-anchor="middle" pointer-events="none" font-size="8px" fill="#000000" x="74.97439027834156" y="3" transform="rotate(180 74.97439027834156 0)" font-family="Helvetica Neue, Helvetica, Arial, sans-serif">IN_GENRE</text></g><g class="relationship" transform="translate(69.48552744451194 -189.27612630966485) rotate(200.2278828318706)"><path class="b-outline" fill="#A5ABB6" stroke="none" d="M 25 0.5 L 45.39755616303337 0.5 L 45.39755616303337 -0.5 L 25 -0.5 Z M 92.29599366303337 0.5 L 112.69354982606674 0.5 L 112.69354982606674 3.5 L 119.69354982606674 0 L 112.69354982606674 -3.5 L 112.69354982606674 -0.5 L 92.29599366303337 -0.5 Z"/><text text-anchor="middle" pointer-events="none" font-size="8px" fill="#000000" x="68.84677491303337" y="3" transform="rotate(180 68.84677491303337 0)" font-family="Helvetica Neue, Helvetica, Arial, sans-serif">IN_GENRE</text></g><g class="relationship" transform="translate(69.48552744451194 -189.27612630966485) rotate(415.7396821218469)"><path class="b-outline" fill="#A5ABB6" stroke="none" d="M 25 0.5 L 54.62338392642573 0.5 L 54.62338392642573 -0.5 L 25 -0.5 Z M 101.52182142642573 0.5 L 131.14520535285146 0.5 L 131.14520535285146 3.5 L 138.14520535285146 0 L 131.14520535285146 -3.5 L 131.14520535285146 -0.5 L 101.52182142642573 -0.5 Z"/><text text-anchor="middle" pointer-events="none" font-size="8px" fill="#000000" x="78.07260267642573" y="3" font-family="Helvetica Neue, Helvetica, Arial, sans-serif">IN_GENRE</text></g><g class="relationship" transform="translate(-80.61354110497425 207.79295386190677) rotate(329.6951250642035)"><path class="b-outline" fill="#A5ABB6" stroke="none" d="M 25 0.5 L 45.749829465194324 0.5 L 45.749829465194324 -0.5 L 25 -0.5 Z M 92.64826696519432 0.5 L 113.39809643038865 0.5 L 113.39809643038865 3.5 L 120.39809643038865 0 L 113.39809643038865 -3.5 L 113.39809643038865 -0.5 L 92.64826696519432 -0.5 Z"/><text text-anchor="middle" pointer-events="none" font-size="8px" fill="#000000" x="69.19904821519432" y="3" font-family="Helvetica Neue, Helvetica, Arial, sans-serif">IN_GENRE</text></g><g class="relationship" transform="translate(-80.61354110497425 207.79295386190677) rotate(441.5048626774251)"><path class="b-outline" fill="#A5ABB6" stroke="none" d="M 25 0.5 L 34.606137057871216 0.5 L 34.606137057871216 -0.5 L 25 -0.5 Z M 81.50457455787122 0.5 L 91.11071161574243 0.5 L 91.11071161574243 3.5 L 98.11071161574243 0 L 91.11071161574243 -3.5 L 91.11071161574243 -0.5 L 81.50457455787122 -0.5 Z"/><text text-anchor="middle" pointer-events="none" font-size="8px" fill="#000000" x="58.055355807871216" y="3" font-family="Helvetica Neue, Helvetica, Arial, sans-serif">IN_GENRE</text></g><g class="relationship" transform="translate(178.4131816125432 59.33779252842689) rotate(510.64383722928216)"><path class="b-outline" fill="#A5ABB6" stroke="none" d="M 25 0.5 L 49.633248683234015 0.5 L 49.633248683234015 -0.5 L 25 -0.5 Z M 96.53168618323402 0.5 L 121.16493486646803 0.5 L 121.16493486646803 3.5 L 128.16493486646803 0 L 121.16493486646803 -3.5 L 121.16493486646803 -0.5 L 96.53168618323402 -0.5 Z"/><text text-anchor="middle" pointer-events="none" font-size="8px" fill="#000000" x="73.08246743323402" y="3" transform="rotate(180 73.08246743323402 0)" font-family="Helvetica Neue, Helvetica, Arial, sans-serif">IN_GENRE</text></g><g class="relationship" transform="translate(178.4131816125432 59.33779252842689) rotate(261.4603694389741)"><path class="b-outline" fill="#A5ABB6" stroke="none" d="M 25 0.5 L 30.576699453588333 0.5 L 30.576699453588333 -0.5 L 25 -0.5 Z M 77.47513695358833 0.5 L 83.05183640717667 0.5 L 83.05183640717667 3.5 L 90.05183640717667 0 L 83.05183640717667 -3.5 L 83.05183640717667 -0.5 L 77.47513695358833 -0.5 Z"/><text text-anchor="middle" pointer-events="none" font-size="8px" fill="#000000" x="54.02591820358833" y="3" transform="rotate(180 54.02591820358833 0)" font-family="Helvetica Neue, Helvetica, Arial, sans-serif">IN_GENRE</text></g><g class="relationship" transform="translate(-190.43258367981838 153.31819204293902) rotate(257.95353736251974)"><path class="b-outline" fill="#A5ABB6" stroke="none" d="M 25 0.5 L 86.94326491109508 0.5 L 86.94326491109508 -0.5 L 25 -0.5 Z M 133.84170241109507 0.5 L 195.78496732219017 0.5 L 195.78496732219017 3.5 L 202.78496732219017 0 L 195.78496732219017 -3.5 L 195.78496732219017 -0.5 L 133.84170241109507 -0.5 Z"/><text text-anchor="middle" pointer-events="none" font-size="8px" fill="#000000" x="110.39248366109508" y="3" transform="rotate(180 110.39248366109508 0)" font-family="Helvetica Neue, Helvetica, Arial, sans-serif">IN_GENRE</text></g><g class="relationship" transform="translate(-190.43258367981838 153.31819204293902) rotate(414.0077487637159)"><path class="b-outline" fill="#A5ABB6" stroke="none" d="M 25 0.5 L 81.95914809140662 0.5 L 81.95914809140662 -0.5 L 25 -0.5 Z M 128.85758559140663 0.5 L 185.81673368281324 0.5 L 185.81673368281324 3.5 L 192.81673368281324 0 L 185.81673368281324 -3.5 L 185.81673368281324 -0.5 L 128.85758559140663 -0.5 Z"/><text text-anchor="middle" pointer-events="none" font-size="8px" fill="#000000" x="105.40836684140662" y="3" font-family="Helvetica Neue, Helvetica, Arial, sans-serif">IN_GENRE</text></g><g class="relationship" transform="translate(-411.97338438452465 -70.33786150213935) rotate(360.29214249512563)"><path class="b-outline" fill="#A5ABB6" stroke="none" d="M 25 0.5 L 60.05240136696419 0.5 L 60.05240136696419 -0.5 L 25 -0.5 Z M 106.95083886696419 0.5 L 142.00324023392838 0.5 L 142.00324023392838 3.5 L 149.00324023392838 0 L 142.00324023392838 -3.5 L 142.00324023392838 -0.5 L 106.95083886696419 -0.5 Z"/><text text-anchor="middle" pointer-events="none" font-size="8px" fill="#000000" x="83.50162011696419" y="3" font-family="Helvetica Neue, Helvetica, Arial, sans-serif">IN_GENRE</text></g><g class="relationship" transform="translate(-411.97338438452465 -70.33786150213935) rotate(437.79567594783407)"><path class="b-outline" fill="#A5ABB6" stroke="none" d="M 25 0.5 L 82.1985817287931 0.5 L 82.1985817287931 -0.5 L 25 -0.5 Z M 129.0970192287931 0.5 L 186.2956009575862 0.5 L 186.2956009575862 3.5 L 193.2956009575862 0 L 186.2956009575862 -3.5 L 186.2956009575862 -0.5 L 129.0970192287931 -0.5 Z"/><text text-anchor="middle" pointer-events="none" font-size="8px" fill="#000000" x="105.6478004787931" y="3" font-family="Helvetica Neue, Helvetica, Arial, sans-serif">IN_GENRE</text></g><g class="relationship" transform="translate(-374.11317614090706 20.44082418543608) rotate(326.5638846376912)"><path class="b-outline" fill="#A5ABB6" stroke="none" d="M 25 0.5 L 54.620975365237015 0.5 L 54.620975365237015 -0.5 L 25 -0.5 Z M 101.51941286523702 0.5 L 131.14038823047403 0.5 L 131.14038823047403 3.5 L 138.14038823047403 0 L 131.14038823047403 -3.5 L 131.14038823047403 -0.5 L 101.51941286523702 -0.5 Z"/><text text-anchor="middle" pointer-events="none" font-size="8px" fill="#000000" x="78.07019411523702" y="3" font-family="Helvetica Neue, Helvetica, Arial, sans-serif">IN_GENRE</text></g><g class="relationship" transform="translate(-374.11317614090706 20.44082418543608) rotate(446.13244328053605)"><path class="b-outline" fill="#A5ABB6" stroke="none" d="M 25 0.5 L 34.482394767717786 0.5 L 34.482394767717786 -0.5 L 25 -0.5 Z M 81.38083226771778 0.5 L 90.86322703543557 0.5 L 90.86322703543557 3.5 L 97.86322703543557 0 L 90.86322703543557 -3.5 L 90.86322703543557 -0.5 L 81.38083226771778 -0.5 Z"/><text text-anchor="middle" pointer-events="none" font-size="8px" fill="#000000" x="57.931613517717786" y="3" font-family="Helvetica Neue, Helvetica, Arial, sans-serif">IN_GENRE</text></g><g class="relationship" transform="translate(58.09754125923625 37.3792762870941) rotate(318.34887856902634)"><path class="b-outline" fill="#A5ABB6" stroke="none" d="M 25 0.5 L 42.12897115544597 0.5 L 42.12897115544597 -0.5 L 25 -0.5 Z M 89.02740865544597 0.5 L 106.15637981089193 0.5 L 106.15637981089193 3.5 L 113.15637981089193 0 L 106.15637981089193 -3.5 L 106.15637981089193 -0.5 L 89.02740865544597 -0.5 Z"/><text text-anchor="middle" pointer-events="none" font-size="8px" fill="#000000" x="65.57818990544597" y="3" font-family="Helvetica Neue, Helvetica, Arial, sans-serif">IN_GENRE</text></g><g class="relationship" transform="translate(58.09754125923625 37.3792762870941) rotate(452.2147484048258)"><path class="b-outline" fill="#A5ABB6" stroke="none" d="M 25 0.5 L 70.46279452538464 0.5 L 70.46279452538464 -0.5 L 25 -0.5 Z M 117.36123202538464 0.5 L 162.82402655076928 0.5 L 162.82402655076928 3.5 L 169.82402655076928 0 L 162.82402655076928 -3.5 L 162.82402655076928 -0.5 L 117.36123202538464 -0.5 Z"/><text text-anchor="middle" pointer-events="none" font-size="8px" fill="#000000" x="93.91201327538464" y="3" transform="rotate(180 93.91201327538464 0)" font-family="Helvetica Neue, Helvetica, Arial, sans-serif">IN_GENRE</text></g><g class="relationship" transform="translate(-155.03736300556167 60.690491564067315) rotate(237.49186090972955)"><path class="b-outline" fill="#A5ABB6" stroke="none" d="M 25 0.5 L 50.211227531754034 0.5 L 50.211227531754034 -0.5 L 25 -0.5 Z M 97.10966503175403 0.5 L 122.32089256350807 0.5 L 122.32089256350807 3.5 L 129.32089256350807 0 L 122.32089256350807 -3.5 L 122.32089256350807 -0.5 L 97.10966503175403 -0.5 Z"/><text text-anchor="middle" pointer-events="none" font-size="8px" fill="#000000" x="73.66044628175403" y="3" transform="rotate(180 73.66044628175403 0)" font-family="Helvetica Neue, Helvetica, Arial, sans-serif">IN_GENRE</text></g><g class="relationship" transform="translate(-155.03736300556167 60.690491564067315) rotate(518.6644518966868)"><path class="b-outline" fill="#A5ABB6" stroke="none" d="M 25 0.5 L 86.19968789909318 0.5 L 86.19968789909318 -0.5 L 25 -0.5 Z M 133.0981253990932 0.5 L 194.29781329818636 0.5 L 194.29781329818636 3.5 L 201.29781329818636 0 L 194.29781329818636 -3.5 L 194.29781329818636 -0.5 L 133.0981253990932 -0.5 Z"/><text text-anchor="middle" pointer-events="none" font-size="8px" fill="#000000" x="109.64890664909318" y="3" transform="rotate(180 109.64890664909318 0)" font-family="Helvetica Neue, Helvetica, Arial, sans-serif">IN_GENRE</text></g><g class="relationship" transform="translate(-155.03736300556167 60.690491564067315) rotate(380.24183516956754)"><path class="b-outline" fill="#A5ABB6" stroke="none" d="M 25 0.5 L 79.6085442464988 0.5 L 79.6085442464988 -0.5 L 25 -0.5 Z M 126.5069817464988 0.5 L 181.1155259929976 0.5 L 181.1155259929976 3.5 L 188.1155259929976 0 L 181.1155259929976 -3.5 L 181.1155259929976 -0.5 L 126.5069817464988 -0.5 Z"/><text text-anchor="middle" pointer-events="none" font-size="8px" fill="#000000" x="103.0577629964988" y="3" font-family="Helvetica Neue, Helvetica, Arial, sans-serif">IN_GENRE</text></g><g class="relationship" transform="translate(-44.98610117398496 -44.26219972711587) rotate(187.43617291929934)"><path class="b-outline" fill="#A5ABB6" stroke="none" d="M 25 0.5 L 70.36235796508748 0.5 L 70.36235796508748 -0.5 L 25 -0.5 Z M 117.26079546508748 0.5 L 162.62315343017497 0.5 L 162.62315343017497 3.5 L 169.62315343017497 0 L 162.62315343017497 -3.5 L 162.62315343017497 -0.5 L 117.26079546508748 -0.5 Z"/><text text-anchor="middle" pointer-events="none" font-size="8px" fill="#000000" x="93.81157671508748" y="3" transform="rotate(180 93.81157671508748 0)" font-family="Helvetica Neue, Helvetica, Arial, sans-serif">IN_GENRE</text></g><g class="relationship" transform="translate(-44.98610117398496 -44.26219972711587) rotate(423.2917779472134)"><path class="b-outline" fill="#A5ABB6" stroke="none" d="M 25 0.5 L 73.06518642467276 0.5 L 73.06518642467276 -0.5 L 25 -0.5 Z M 119.96362392467276 0.5 L 168.02881034934552 0.5 L 168.02881034934552 3.5 L 175.02881034934552 0 L 168.02881034934552 -3.5 L 168.02881034934552 -0.5 L 119.96362392467276 -0.5 Z"/><text text-anchor="middle" pointer-events="none" font-size="8px" fill="#000000" x="96.51440517467276" y="3" font-family="Helvetica Neue, Helvetica, Arial, sans-serif">IN_GENRE</text></g><g class="relationship" transform="translate(-44.98610117398496 -44.26219972711587) rotate(263.768198672853)"><path class="b-outline" fill="#A5ABB6" stroke="none" d="M 25 0.5 L 71.15168580308622 0.5 L 71.15168580308622 -0.5 L 25 -0.5 Z M 118.05012330308622 0.5 L 164.20180910617245 0.5 L 164.20180910617245 3.5 L 171.20180910617245 0 L 164.20180910617245 -3.5 L 164.20180910617245 -0.5 L 118.05012330308622 -0.5 Z"/><text text-anchor="middle" pointer-events="none" font-size="8px" fill="#000000" x="94.60090455308622" y="3" transform="rotate(180 94.60090455308622 0)" font-family="Helvetica Neue, Helvetica, Arial, sans-serif">IN_GENRE</text></g><g class="relationship" transform="translate(-44.98610117398496 -44.26219972711587) rotate(357.17622139795253)"><path class="b-outline" fill="#A5ABB6" stroke="none" d="M 25 0.5 L 76.33360818427633 0.5 L 76.33360818427633 -0.5 L 25 -0.5 Z M 123.23204568427633 0.5 L 174.56565386855266 0.5 L 174.56565386855266 3.5 L 181.56565386855266 0 L 174.56565386855266 -3.5 L 174.56565386855266 -0.5 L 123.23204568427633 -0.5 Z"/><text text-anchor="middle" pointer-events="none" font-size="8px" fill="#000000" x="99.78282693427633" y="3" font-family="Helvetica Neue, Helvetica, Arial, sans-serif">IN_GENRE</text></g><g class="relationship" transform="translate(50.085996234994816 -75.36746620784272) rotate(451.41159852876973)"><path class="b-outline" fill="#A5ABB6" stroke="none" d="M 25 0.5 L 77.9788160326355 0.5 L 77.9788160326355 -0.5 L 25 -0.5 Z M 124.8772535326355 0.5 L 177.856069565271 0.5 L 177.856069565271 3.5 L 184.856069565271 0 L 177.856069565271 -3.5 L 177.856069565271 -0.5 L 124.8772535326355 -0.5 Z"/><text text-anchor="middle" pointer-events="none" font-size="8px" fill="#000000" x="101.4280347826355" y="3" transform="rotate(180 101.4280347826355 0)" font-family="Helvetica Neue, Helvetica, Arial, sans-serif">IN_GENRE</text></g><g class="relationship" transform="translate(50.085996234994816 -75.36746620784272) rotate(234.6311408813035)"><path class="b-outline" fill="#A5ABB6" stroke="none" d="M 25 0.5 L 73.57114648093652 0.5 L 73.57114648093652 -0.5 L 25 -0.5 Z M 120.46958398093652 0.5 L 169.04073046187304 0.5 L 169.04073046187304 3.5 L 176.04073046187304 0 L 169.04073046187304 -3.5 L 169.04073046187304 -0.5 L 120.46958398093652 -0.5 Z"/><text text-anchor="middle" pointer-events="none" font-size="8px" fill="#000000" x="97.02036523093652" y="3" transform="rotate(180 97.02036523093652 0)" font-family="Helvetica Neue, Helvetica, Arial, sans-serif">IN_GENRE</text></g><g class="relationship" transform="translate(50.085996234994816 -75.36746620784272) rotate(370.65494981294887)"><path class="b-outline" fill="#A5ABB6" stroke="none" d="M 25 0.5 L 29.647972939378278 0.5 L 29.647972939378278 -0.5 L 25 -0.5 Z M 76.54641043937828 0.5 L 81.19438337875656 0.5 L 81.19438337875656 3.5 L 88.19438337875656 0 L 81.19438337875656 -3.5 L 81.19438337875656 -0.5 L 76.54641043937828 -0.5 Z"/><text text-anchor="middle" pointer-events="none" font-size="8px" fill="#000000" x="53.09719168937828" y="3" font-family="Helvetica Neue, Helvetica, Arial, sans-serif">IN_GENRE</text></g><g class="relationship" transform="translate(50.085996234994816 -75.36746620784272) rotate(352.933610840803)"><path class="b-outline" fill="#A5ABB6" stroke="none" d="M 25 0.5 L 73.5224448520198 0.5 L 73.5224448520198 -0.5 L 25 -0.5 Z M 120.4208823520198 0.5 L 168.9433272040396 0.5 L 168.9433272040396 3.5 L 175.9433272040396 0 L 168.9433272040396 -3.5 L 168.9433272040396 -0.5 L 120.4208823520198 -0.5 Z"/><text text-anchor="middle" pointer-events="none" font-size="8px" fill="#000000" x="96.9716636020198" y="3" font-family="Helvetica Neue, Helvetica, Arial, sans-serif">IN_GENRE</text></g><g class="relationship" transform="translate(-291.14604619727885 76.36262670376352) rotate(290.035365365794)"><path class="b-outline" fill="#A5ABB6" stroke="none" d="M 25 0.5 L 50.6538537367213 0.5 L 50.6538537367213 -0.5 L 25 -0.5 Z M 97.5522912367213 0.5 L 123.2061449734426 0.5 L 123.2061449734426 3.5 L 130.2061449734426 0 L 123.2061449734426 -3.5 L 123.2061449734426 -0.5 L 97.5522912367213 -0.5 Z"/><text text-anchor="middle" pointer-events="none" font-size="8px" fill="#000000" x="74.1030724867213" y="3" font-family="Helvetica Neue, Helvetica, Arial, sans-serif">IN_GENRE</text></g><g class="relationship" transform="translate(-291.14604619727885 76.36262670376352) rotate(443.26424580859714)"><path class="b-outline" fill="#A5ABB6" stroke="none" d="M 25 0.5 L 49.31324842062209 0.5 L 49.31324842062209 -0.5 L 25 -0.5 Z M 96.21168592062209 0.5 L 120.52493434124418 0.5 L 120.52493434124418 3.5 L 127.52493434124418 0 L 120.52493434124418 -3.5 L 120.52493434124418 -0.5 L 96.21168592062209 -0.5 Z"/><text text-anchor="middle" pointer-events="none" font-size="8px" fill="#000000" x="72.76246717062209" y="3" font-family="Helvetica Neue, Helvetica, Arial, sans-serif">IN_GENRE</text></g></g><g class="layer nodes"><g class="node" aria-label="graph-node5004" transform="translate(-264.63229379291255,334.97225918261313)"><circle class="b-outline" cx="0" cy="0" r="25" fill="#F79767" stroke="#f36924" stroke-width="2px"/><text class="caption" text-anchor="middle" pointer-events="none" x="0" y="5" font-size="10px" fill="#FFFFFF" font-family="Helvetica Neue, Helvetica, Arial, sans-serif"> Star Wars</text></g><g class="node" aria-label="graph-node4987" transform="translate(-365.82600859996865,143.02424644028017)"><circle class="b-outline" cx="0" cy="0" r="25" fill="#57C7E3" stroke="#23b3d7" stroke-width="2px"/><text class="caption" text-anchor="middle" pointer-events="none" x="0" y="5" font-size="10px" fill="#2A2C34" font-family="Helvetica Neue, Helvetica, Arial, sans-serif"> Adventure</text></g><g class="node" aria-label="graph-node4995" transform="translate(-288.21807480457755,483.1944010879977)"><circle class="b-outline" cx="0" cy="0" r="25" fill="#57C7E3" stroke="#23b3d7" stroke-width="2px"/><text class="caption" text-anchor="middle" pointer-events="none" x="0" y="5" font-size="10px" fill="#2A2C34" font-family="Helvetica Neue, Helvetica, Arial, sans-serif"> Fantasy</text></g><g class="node" aria-label="graph-node5000" transform="translate(-62.42695298951279,329.55294452900995)"><circle class="b-outline" cx="0" cy="0" r="25" fill="#57C7E3" stroke="#23b3d7" stroke-width="2px"/><text class="caption" text-anchor="middle" pointer-events="none" x="0" y="5" font-size="10px" fill="#2A2C34" font-family="Helvetica Neue, Helvetica, Arial, sans-serif"> SciFi</text></g><g class="node" aria-label="graph-node5005" transform="translate(241.37374140877054,134.7169980241603)"><circle class="b-outline" cx="0" cy="0" r="25" fill="#F79767" stroke="#f36924" stroke-width="2px"/><text class="caption" text-anchor="middle" pointer-events="none" x="0" y="0" font-size="10px" fill="#FFFFFF" font-family="Helvetica Neue, Helvetica, Arial, sans-serif"> Forrest</text><text class="caption" text-anchor="middle" pointer-events="none" x="0" y="10" font-size="10px" fill="#FFFFFF" font-family="Helvetica Neue, Helvetica, Arial, sans-serif"> Gump</text></g><g class="node" aria-label="graph-node4989" transform="translate(44.916286451486144,134.42491695736695)"><circle class="b-outline" cx="0" cy="0" r="25" fill="#57C7E3" stroke="#23b3d7" stroke-width="2px"/><text class="caption" text-anchor="middle" pointer-events="none" x="0" y="5" font-size="10px" fill="#2A2C34" font-family="Helvetica Neue, Helvetica, Arial, sans-serif"> Comedy</text></g><g class="node" aria-label="graph-node4993" transform="translate(161.32873612161941,-54.43850897118855)"><circle class="b-outline" cx="0" cy="0" r="25" fill="#57C7E3" stroke="#23b3d7" stroke-width="2px"/><text class="caption" text-anchor="middle" pointer-events="none" x="0" y="5" font-size="10px" fill="#2A2C34" font-family="Helvetica Neue, Helvetica, Arial, sans-serif"> Drama</text></g><g class="node" aria-label="graph-node5006" transform="translate(332.65508020957213,-46.31301333646431)"><circle class="b-outline" cx="0" cy="0" r="25" fill="#F79767" stroke="#f36924" stroke-width="2px"/><text class="caption" text-anchor="middle" pointer-events="none" x="0" y="0" font-size="10px" fill="#FFFFFF" font-family="Helvetica Neue, Helvetica, Arial, sans-serif"> American</text><text class="caption" text-anchor="middle" pointer-events="none" x="0" y="10" font-size="10px" fill="#FFFFFF" font-family="Helvetica Neue, Helvetica, Arial, sans-serif"> Beauty</text></g><g class="node" aria-label="graph-node5007" transform="translate(290.6157600751797,43.68856641151348)"><circle class="b-outline" cx="0" cy="0" r="25" fill="#F79767" stroke="#f36924" stroke-width="2px"/><text class="caption" text-anchor="middle" pointer-events="none" x="0" y="0" font-size="10px" fill="#FFFFFF" font-family="Helvetica Neue, Helvetica, Arial, sans-serif"> Citizen</text><text class="caption" text-anchor="middle" pointer-events="none" x="0" y="10" font-size="10px" fill="#FFFFFF" font-family="Helvetica Neue, Helvetica, Arial, sans-serif"> Kane</text></g><g class="node" aria-label="graph-node5008" transform="translate(428.2323194204997,-160.36358855707803)"><circle class="b-outline" cx="0" cy="0" r="25" fill="#F79767" stroke="#f36924" stroke-width="2px"/><text class="caption" text-anchor="middle" pointer-events="none" x="0" y="5" font-size="10px" fill="#FFFFFF" font-family="Helvetica Neue, Helvetica, Arial, sans-serif"> The Dark</text></g><g class="node" aria-label="graph-node4997" transform="translate(551.4690041700618,-248.0563774353395)"><circle class="b-outline" cx="0" cy="0" r="25" fill="#57C7E3" stroke="#23b3d7" stroke-width="2px"/><text class="caption" text-anchor="middle" pointer-events="none" x="0" y="5" font-size="10px" fill="#2A2C34" font-family="Helvetica Neue, Helvetica, Arial, sans-serif"> Horror</text></g><g class="node" aria-label="graph-node5002" transform="translate(249.50301302774076,-100.08738047370127)"><circle class="b-outline" cx="0" cy="0" r="25" fill="#57C7E3" stroke="#23b3d7" stroke-width="2px"/><text class="caption" text-anchor="middle" pointer-events="none" x="0" y="5" font-size="10px" fill="#2A2C34" font-family="Helvetica Neue, Helvetica, Arial, sans-serif"> Thriller</text></g><g class="node" aria-label="graph-node5009" transform="translate(-11.8701506160041,475.0100022443597)"><circle class="b-outline" cx="0" cy="0" r="25" fill="#F79767" stroke="#f36924" stroke-width="2px"/><text class="caption" text-anchor="middle" pointer-events="none" x="0" y="0" font-size="10px" fill="#FFFFFF" font-family="Helvetica Neue, Helvetica, Arial, sans-serif"> The Fifth</text><text class="caption" text-anchor="middle" pointer-events="none" x="0" y="10" font-size="10px" fill="#FFFFFF" font-family="Helvetica Neue, Helvetica, Arial, sans-serif"> Element</text></g><g class="node" aria-label="graph-node5010" transform="translate(-39.532649698606086,-143.6255498199221)"><circle class="b-outline" cx="0" cy="0" r="25" fill="#F79767" stroke="#f36924" stroke-width="2px"/><text class="caption" text-anchor="middle" pointer-events="none" x="0" y="5" font-size="10px" fill="#FFFFFF" font-family="Helvetica Neue, Helvetica, Arial, sans-serif"> Apocaly…</text></g><g class="node" aria-label="graph-node4986" transform="translate(-237.9724060360237,-69.45064919907956)"><circle class="b-outline" cx="0" cy="0" r="25" fill="#57C7E3" stroke="#23b3d7" stroke-width="2px"/><text class="caption" text-anchor="middle" pointer-events="none" x="0" y="5" font-size="10px" fill="#2A2C34" font-family="Helvetica Neue, Helvetica, Arial, sans-serif"> Action</text></g><g class="node" aria-label="graph-node4996" transform="translate(2.7319156291267452,-310.37258947568534)"><circle class="b-outline" cx="0" cy="0" r="25" fill="#57C7E3" stroke="#23b3d7" stroke-width="2px"/><text class="caption" text-anchor="middle" pointer-events="none" x="0" y="5" font-size="10px" fill="#2A2C34" font-family="Helvetica Neue, Helvetica, Arial, sans-serif"> History</text></g><g class="node" aria-label="graph-node5011" transform="translate(270.9098053147557,-204.05344511053374)"><circle class="b-outline" cx="0" cy="0" r="25" fill="#F79767" stroke="#f36924" stroke-width="2px"/><text class="caption" text-anchor="middle" pointer-events="none" x="0" y="5" font-size="10px" fill="#FFFFFF" font-family="Helvetica Neue, Helvetica, Arial, sans-serif"> Unforgiv…</text></g><g class="node" aria-label="graph-node5003" transform="translate(318.51245722333715,-352.8677086940977)"><circle class="b-outline" cx="0" cy="0" r="25" fill="#57C7E3" stroke="#23b3d7" stroke-width="2px"/><text class="caption" text-anchor="middle" pointer-events="none" x="0" y="5" font-size="10px" fill="#2A2C34" font-family="Helvetica Neue, Helvetica, Arial, sans-serif"> Western</text></g><g class="node" aria-label="graph-node5012" transform="translate(143.21968500566783,151.67091982153045)"><circle class="b-outline" cx="0" cy="0" r="25" fill="#F79767" stroke="#f36924" stroke-width="2px"/><text class="caption" text-anchor="middle" pointer-events="none" x="0" y="0" font-size="10px" fill="#FFFFFF" font-family="Helvetica Neue, Helvetica, Arial, sans-serif"> Twelve</text><text class="caption" text-anchor="middle" pointer-events="none" x="0" y="10" font-size="10px" fill="#FFFFFF" font-family="Helvetica Neue, Helvetica, Arial, sans-serif"> Monk…</text></g><g class="node" aria-label="graph-node5013" transform="translate(153.77946937842947,-241.7167219497864)"><circle class="b-outline" cx="0" cy="0" r="25" fill="#F79767" stroke="#f36924" stroke-width="2px"/><text class="caption" text-anchor="middle" pointer-events="none" x="0" y="0" font-size="10px" fill="#FFFFFF" font-family="Helvetica Neue, Helvetica, Arial, sans-serif"> Absolute</text><text class="caption" text-anchor="middle" pointer-events="none" x="0" y="10" font-size="10px" fill="#FFFFFF" font-family="Helvetica Neue, Helvetica, Arial, sans-serif"> Power</text></g><g class="node" aria-label="graph-node4990" transform="translate(-66.28402935289961,-239.3046262702163)"><circle class="b-outline" cx="0" cy="0" r="25" fill="#57C7E3" stroke="#23b3d7" stroke-width="2px"/><text class="caption" text-anchor="middle" pointer-events="none" x="0" y="5" font-size="10px" fill="#2A2C34" font-family="Helvetica Neue, Helvetica, Arial, sans-serif"> Crime</text></g><g class="node" aria-label="graph-node5014" transform="translate(94.35827708018955,322.38975039368387)"><circle class="b-outline" cx="0" cy="0" r="25" fill="#F79767" stroke="#f36924" stroke-width="2px"/><text class="caption" text-anchor="middle" pointer-events="none" x="0" y="5" font-size="10px" fill="#FFFFFF" font-family="Helvetica Neue, Helvetica, Arial, sans-serif"> Brazil</text></g><g class="node" aria-label="graph-node5015" transform="translate(69.48552744451194,-189.27612630966485)"><circle class="b-outline" cx="0" cy="0" r="25" fill="#F79767" stroke="#f36924" stroke-width="2px"/><text class="caption" text-anchor="middle" pointer-events="none" x="0" y="0" font-size="10px" fill="#FFFFFF" font-family="Helvetica Neue, Helvetica, Arial, sans-serif"> American</text><text class="caption" text-anchor="middle" pointer-events="none" x="0" y="10" font-size="10px" fill="#FFFFFF" font-family="Helvetica Neue, Helvetica, Arial, sans-serif">X…</text></g><g class="node" aria-label="graph-node5016" transform="translate(-80.61354110497425,207.79295386190677)"><circle class="b-outline" cx="0" cy="0" r="25" fill="#F79767" stroke="#f36924" stroke-width="2px"/><text class="caption" text-anchor="middle" pointer-events="none" x="0" y="0" font-size="10px" fill="#FFFFFF" font-family="Helvetica Neue, Helvetica, Arial, sans-serif"> Mars</text><text class="caption" text-anchor="middle" pointer-events="none" x="0" y="10" font-size="10px" fill="#FFFFFF" font-family="Helvetica Neue, Helvetica, Arial, sans-serif"> Attacks!</text></g><g class="node" aria-label="graph-node5017" transform="translate(178.4131816125432,59.33779252842689)"><circle class="b-outline" cx="0" cy="0" r="25" fill="#F79767" stroke="#f36924" stroke-width="2px"/><text class="caption" text-anchor="middle" pointer-events="none" x="0" y="0" font-size="10px" fill="#FFFFFF" font-family="Helvetica Neue, Helvetica, Arial, sans-serif"> Before</text><text class="caption" text-anchor="middle" pointer-events="none" x="0" y="10" font-size="10px" fill="#FFFFFF" font-family="Helvetica Neue, Helvetica, Arial, sans-serif"> Sunrise</text></g><g class="node" aria-label="graph-node5018" transform="translate(-190.43258367981838,153.31819204293902)"><circle class="b-outline" cx="0" cy="0" r="25" fill="#F79767" stroke="#f36924" stroke-width="2px"/><text class="caption" text-anchor="middle" pointer-events="none" x="0" y="0" font-size="10px" fill="#FFFFFF" font-family="Helvetica Neue, Helvetica, Arial, sans-serif"> Blade</text><text class="caption" text-anchor="middle" pointer-events="none" x="0" y="10" font-size="10px" fill="#FFFFFF" font-family="Helvetica Neue, Helvetica, Arial, sans-serif"> Runner</text></g><g class="node" aria-label="graph-node5019" transform="translate(-411.97338438452465,-70.33786150213935)"><circle class="b-outline" cx="0" cy="0" r="25" fill="#F79767" stroke="#f36924" stroke-width="2px"/><text class="caption" text-anchor="middle" pointer-events="none" x="0" y="0" font-size="10px" fill="#FFFFFF" font-family="Helvetica Neue, Helvetica, Arial, sans-serif"> Raiders of</text><text class="caption" text-anchor="middle" pointer-events="none" x="0" y="10" font-size="10px" fill="#FFFFFF" font-family="Helvetica Neue, Helvetica, Arial, sans-serif"> the Lost</text></g><g class="node" aria-label="graph-node5020" transform="translate(-374.11317614090706,20.44082418543608)"><circle class="b-outline" cx="0" cy="0" r="25" fill="#F79767" stroke="#f36924" stroke-width="2px"/><text class="caption" text-anchor="middle" pointer-events="none" x="0" y="-5" font-size="10px" fill="#FFFFFF" font-family="Helvetica Neue, Helvetica, Arial, sans-serif"> Indiana</text><text class="caption" text-anchor="middle" pointer-events="none" x="0" y="5" font-size="10px" fill="#FFFFFF" font-family="Helvetica Neue, Helvetica, Arial, sans-serif"> Jones and</text><text class="caption" text-anchor="middle" pointer-events="none" x="0" y="15" font-size="10px" fill="#FFFFFF" font-family="Helvetica Neue, Helvetica, Arial, sans-serif"> t</text></g><g class="node" aria-label="graph-node5021" transform="translate(58.09754125923625,37.3792762870941)"><circle class="b-outline" cx="0" cy="0" r="25" fill="#F79767" stroke="#f36924" stroke-width="2px"/><text class="caption" text-anchor="middle" pointer-events="none" x="0" y="0" font-size="10px" fill="#FFFFFF" font-family="Helvetica Neue, Helvetica, Arial, sans-serif"> Dirty</text><text class="caption" text-anchor="middle" pointer-events="none" x="0" y="10" font-size="10px" fill="#FFFFFF" font-family="Helvetica Neue, Helvetica, Arial, sans-serif"> Dancing</text></g><g class="node" aria-label="graph-node4998" transform="translate(50.568561628304565,232.05776967342547)"><circle class="b-outline" cx="0" cy="0" r="25" fill="#57C7E3" stroke="#23b3d7" stroke-width="2px"/><text class="caption" text-anchor="middle" pointer-events="none" x="0" y="5" font-size="10px" fill="#2A2C34" font-family="Helvetica Neue, Helvetica, Arial, sans-serif"> Musical</text></g><g class="node" aria-label="graph-node5022" transform="translate(-155.03736300556167,60.690491564067315)"><circle class="b-outline" cx="0" cy="0" r="25" fill="#F79767" stroke="#f36924" stroke-width="2px"/><text class="caption" text-anchor="middle" pointer-events="none" x="0" y="-5" font-size="10px" fill="#FFFFFF" font-family="Helvetica Neue, Helvetica, Arial, sans-serif"> Indiana</text><text class="caption" text-anchor="middle" pointer-events="none" x="0" y="5" font-size="10px" fill="#FFFFFF" font-family="Helvetica Neue, Helvetica, Arial, sans-serif"> Jones and</text><text class="caption" text-anchor="middle" pointer-events="none" x="0" y="15" font-size="10px" fill="#FFFFFF" font-family="Helvetica Neue, Helvetica, Arial, sans-serif"> t</text></g><g class="node" aria-label="graph-node5023" transform="translate(-44.98610117398496,-44.26219972711587)"><circle class="b-outline" cx="0" cy="0" r="25" fill="#F79767" stroke="#f36924" stroke-width="2px"/><text class="caption" text-anchor="middle" pointer-events="none" x="0" y="0" font-size="10px" fill="#FFFFFF" font-family="Helvetica Neue, Helvetica, Arial, sans-serif"> Beverly</text><text class="caption" text-anchor="middle" pointer-events="none" x="0" y="10" font-size="10px" fill="#FFFFFF" font-family="Helvetica Neue, Helvetica, Arial, sans-serif"> C…</text></g><g class="node" aria-label="graph-node5024" transform="translate(50.085996234994816,-75.36746620784272)"><circle class="b-outline" cx="0" cy="0" r="25" fill="#F79767" stroke="#f36924" stroke-width="2px"/><text class="caption" text-anchor="middle" pointer-events="none" x="0" y="-5" font-size="10px" fill="#FFFFFF" font-family="Helvetica Neue, Helvetica, Arial, sans-serif"> Anatomy</text><text class="caption" text-anchor="middle" pointer-events="none" x="0" y="5" font-size="10px" fill="#FFFFFF" font-family="Helvetica Neue, Helvetica, Arial, sans-serif"> of a</text><text class="caption" text-anchor="middle" pointer-events="none" x="0" y="15" font-size="10px" fill="#FFFFFF" font-family="Helvetica Neue, Helvetica, Arial, sans-serif"> Mur…</text></g><g class="node" aria-label="graph-node5025" transform="translate(-291.14604619727885,76.36262670376352)"><circle class="b-outline" cx="0" cy="0" r="25" fill="#F79767" stroke="#f36924" stroke-width="2px"/><text class="caption" text-anchor="middle" pointer-events="none" x="0" y="5" font-size="10px" fill="#FFFFFF" font-family="Helvetica Neue, Helvetica, Arial, sans-serif"> Armage…</text></g><g class="node" aria-label="graph-node4991" transform="translate(-273.2563232845655,227.8347806130124)"><circle class="b-outline" cx="0" cy="0" r="25" fill="#57C7E3" stroke="#23b3d7" stroke-width="2px"/><text class="caption" text-anchor="middle" pointer-events="none" x="0" y="5" font-size="10px" fill="#2A2C34" font-family="Helvetica Neue, Helvetica, Arial, sans-serif"> Disaster</text></g></g></svg>