<svg xmlns="http://www.w3.org/2000/svg" width="495.37872314453125" height="342.21160888671875" viewBox="-236.11468505859375 -117.0916748046875 495.37872314453125 342.21160888671875"><title>Neo4j Graph Visualization</title><desc>Created using Neo4j (http://www.neo4j.com/)</desc><g class="layer relationships"><g class="relationship" transform="translate(45.36132545797711 196.11992246057952) rotate(304.30019373370095)"><path class="b-outline" fill="#A5ABB6" stroke="none" d="M 25 0.5 L 45.47105461982804 0.5 L 45.47105461982804 -0.5 L 25 -0.5 Z M 91.03355461982804 0.5 L 111.50460923965608 0.5 L 111.50460923965608 3.5 L 118.50460923965608 0 L 111.50460923965608 -3.5 L 111.50460923965608 -0.5 L 91.03355461982804 -0.5 Z"/><text text-anchor="middle" pointer-events="none" font-size="8px" fill="#000000" x="68.25230461982804" y="3" font-family="Helvetica Neue, Helvetica, Arial, sans-serif">ACTED_IN</text></g><g class="relationship" transform="translate(230.26403864654543 -20.703915289031126) rotate(496.63042893394976)"><path class="b-outline" fill="#A5ABB6" stroke="none" d="M 25 0.5 L 45.27472620237418 0.5 L 45.27472620237418 -0.5 L 25 -0.5 Z M 90.83722620237418 0.5 L 111.11195240474837 0.5 L 111.11195240474837 3.5 L 118.11195240474837 0 L 111.11195240474837 -3.5 L 111.11195240474837 -0.5 L 90.83722620237418 -0.5 Z"/><text text-anchor="middle" pointer-events="none" font-size="8px" fill="#000000" x="68.05597620237418" y="3" transform="rotate(180 68.05597620237418 0)" font-family="Helvetica Neue, Helvetica, Arial, sans-serif">ACTED_IN</text></g><g class="relationship" transform="translate(98.18675796143111 -66.27362320634802) rotate(438.968171228246)"><path class="b-outline" fill="#A5ABB6" stroke="none" d="M 25 0.5 L 46.99527751447668 0.5 L 46.99527751447668 -0.5 L 25 -0.5 Z M 92.55777751447668 0.5 L 114.55305502895337 0.5 L 114.55305502895337 3.5 L 121.55305502895337 0 L 114.55305502895337 -3.5 L 114.55305502895337 -0.5 L 92.55777751447668 -0.5 Z"/><text text-anchor="middle" pointer-events="none" font-size="8px" fill="#000000" x="69.77652751447668" y="3" font-family="Helvetica Neue, Helvetica, Arial, sans-serif">ACTED_IN</text></g><g class="relationship" transform="translate(-5.502741201700937 18.84626798527113) rotate(384.026739506079)"><path class="b-outline" fill="#A5ABB6" stroke="none" d="M 25 0.5 L 45.833631655334 0.5 L 45.833631655334 -0.5 L 25 -0.5 Z M 91.396131655334 0.5 L 112.229763310668 0.5 L 112.229763310668 3.5 L 119.229763310668 0 L 112.229763310668 -3.5 L 112.229763310668 -0.5 L 91.396131655334 -0.5 Z"/><text text-anchor="middle" pointer-events="none" font-size="8px" fill="#000000" x="68.614881655334" y="3" font-family="Helvetica Neue, Helvetica, Arial, sans-serif">ACTED_IN</text></g><g class="relationship" transform="translate(-193.6403241991194 -88.09167182634883) rotate(455.3749847767878)"><path class="b-outline" fill="#A5ABB6" stroke="none" d="M 25 0.5 L 45.64060943566531 0.5 L 45.64060943566531 -0.5 L 25 -0.5 Z M 91.20310943566531 0.5 L 111.84371887133062 0.5 L 111.84371887133062 3.5 L 118.84371887133062 0 L 111.84371887133062 -3.5 L 111.84371887133062 -0.5 L 91.20310943566531 -0.5 Z"/><text text-anchor="middle" pointer-events="none" font-size="8px" fill="#000000" x="68.42185943566531" y="3" transform="rotate(180 68.42185943566531 0)" font-family="Helvetica Neue, Helvetica, Arial, sans-serif">ACTED_IN</text></g></g><g class="layer nodes"><g class="node" aria-label="graph-node3164" transform="translate(45.36132545797711,196.11992246057952)"><circle class="b-outline" cx="0" cy="0" r="25" fill="#C990C0" stroke="#b261a5" stroke-width="2px"/><text class="caption" text-anchor="middle" pointer-events="none" x="0" y="0" font-size="10px" fill="#FFFFFF" font-family="Helvetica Neue, Helvetica, Arial, sans-serif"> Mark</text><text class="caption" text-anchor="middle" pointer-events="none" x="0" y="10" font-size="10px" fill="#FFFFFF" font-family="Helvetica Neue, Helvetica, Arial, sans-serif"> Hamill</text></g><g class="node" aria-label="graph-node5004" transform="translate(126.23031175503523,77.57128295631269)"><circle class="b-outline" cx="0" cy="0" r="25" fill="#F79767" stroke="#f36924" stroke-width="2px"/><text class="caption" text-anchor="middle" pointer-events="none" x="0" y="5" font-size="10px" fill="#FFFFFF" font-family="Helvetica Neue, Helvetica, Arial, sans-serif"> Star Wars</text></g><g class="node" aria-label="graph-node643" transform="translate(230.26403864654543,-20.703915289031126)"><circle class="b-outline" cx="0" cy="0" r="25" fill="#C990C0" stroke="#b261a5" stroke-width="2px"/><text class="caption" text-anchor="middle" pointer-events="none" x="0" y="0" font-size="10px" fill="#FFFFFF" font-family="Helvetica Neue, Helvetica, Arial, sans-serif"> Carrie</text><text class="caption" text-anchor="middle" pointer-events="none" x="0" y="10" font-size="10px" fill="#FFFFFF" font-family="Helvetica Neue, Helvetica, Arial, sans-serif"> Fisher</text></g><g class="node" aria-label="graph-node1752" transform="translate(98.18675796143111,-66.27362320634802)"><circle class="b-outline" cx="0" cy="0" r="25" fill="#C990C0" stroke="#b261a5" stroke-width="2px"/><text class="caption" text-anchor="middle" pointer-events="none" x="0" y="0" font-size="10px" fill="#FFFFFF" font-family="Helvetica Neue, Helvetica, Arial, sans-serif"> Harrison</text><text class="caption" text-anchor="middle" pointer-events="none" x="0" y="10" font-size="10px" fill="#FFFFFF" font-family="Helvetica Neue, Helvetica, Arial, sans-serif"> Ford</text></g><g class="node" aria-label="graph-node3767" transform="translate(-5.502741201700937,18.84626798527113)"><circle class="b-outline" cx="0" cy="0" r="25" fill="#C990C0" stroke="#b261a5" stroke-width="2px"/><text class="caption" text-anchor="middle" pointer-events="none" x="0" y="0" font-size="10px" fill="#FFFFFF" font-family="Helvetica Neue, Helvetica, Arial, sans-serif"> Peter</text><text class="caption" text-anchor="middle" pointer-events="none" x="0" y="10" font-size="10px" fill="#FFFFFF" font-family="Helvetica Neue, Helvetica, Arial, sans-serif"> Cushing</text></g><g class="node" aria-label="graph-node4665" transform="translate(-193.6403241991194,-88.09167182634883)"><circle class="b-outline" cx="0" cy="0" r="25" fill="#C990C0" stroke="#b261a5" stroke-width="2px"/><text class="caption" text-anchor="middle" pointer-events="none" x="0" y="0" font-size="10px" fill="#FFFFFF" font-family="Helvetica Neue, Helvetica, Arial, sans-serif"> Tom</text><text class="caption" text-anchor="middle" pointer-events="none" x="0" y="10" font-size="10px" fill="#FFFFFF" font-family="Helvetica Neue, Helvetica, Arial, sans-serif"> Hanks</text></g><g class="node" aria-label="graph-node5005" transform="translate(-207.114689511187,55.11956005918221)"><circle class="b-outline" cx="0" cy="0" r="25" fill="#F79767" stroke="#f36924" stroke-width="2px"/><text class="caption" text-anchor="middle" pointer-events="none" x="0" y="0" font-size="10px" fill="#FFFFFF" font-family="Helvetica Neue, Helvetica, Arial, sans-serif"> Forrest</text><text class="caption" text-anchor="middle" pointer-events="none" x="0" y="10" font-size="10px" fill="#FFFFFF" font-family="Helvetica Neue, Helvetica, Arial, sans-serif"> Gump</text></g></g></svg>