<svg xmlns="http://www.w3.org/2000/svg" width="434.0714111328125" height="411.26715087890625" viewBox="-169.5830841064453 -190.5576629638672 434.0714111328125 411.26715087890625"><title>Neo4j Graph Visualization</title><desc>Created using Neo4j (http://www.neo4j.com/)</desc><g class="layer relationships"><g class="relationship" transform="translate(50.94554996559071 33.330651975349745) rotate(436.10259379871883)"><path class="b-outline" fill="#A5ABB6" stroke="none" d="M 25 0.5 L 55.296163439360825 0.5 L 55.296163439360825 -0.5 L 25 -0.5 Z M 100.85866343936083 0.5 L 131.15482687872165 0.5 L 131.15482687872165 3.5 L 138.15482687872165 0 L 131.15482687872165 -3.5 L 131.15482687872165 -0.5 L 100.85866343936083 -0.5 Z"/><text text-anchor="middle" pointer-events="none" font-size="8px" fill="#000000" x="78.07741343936083" y="3" font-family="Helvetica Neue, Helvetica, Arial, sans-serif">ACTED_IN</text></g><g class="relationship" transform="translate(50.94554996559071 33.330651975349745) rotate(404.73625767034594)"><path class="b-outline" fill="#A5ABB6" stroke="none" d="M 25 0.5 L 67.7001519760818 0.5 L 67.7001519760818 -0.5 L 25 -0.5 Z M 113.2626519760818 0.5 L 155.9628039521636 0.5 L 155.9628039521636 3.5 L 162.9628039521636 0 L 155.9628039521636 -3.5 L 155.9628039521636 -0.5 L 113.2626519760818 -0.5 Z"/><text text-anchor="middle" pointer-events="none" font-size="8px" fill="#000000" x="90.4814019760818" y="3" font-family="Helvetica Neue, Helvetica, Arial, sans-serif">ACTED_IN</text></g><g class="relationship" transform="translate(50.94554996559071 33.330651975349745) rotate(375.76785056932454)"><path class="b-outline" fill="#A5ABB6" stroke="none" d="M 25 0.5 L 38.26799138319677 0.5 L 38.26799138319677 -0.5 L 25 -0.5 Z M 83.83049138319677 0.5 L 97.09848276639354 0.5 L 97.09848276639354 3.5 L 104.09848276639354 0 L 97.09848276639354 -3.5 L 97.09848276639354 -0.5 L 83.83049138319677 -0.5 Z"/><text text-anchor="middle" pointer-events="none" font-size="8px" fill="#000000" x="61.04924138319677" y="3" font-family="Helvetica Neue, Helvetica, Arial, sans-serif">ACTED_IN</text></g><g class="relationship" transform="translate(50.94554996559071 33.330651975349745) rotate(347.01360265723713)"><path class="b-outline" fill="#A5ABB6" stroke="none" d="M 25 0.5 L 68.41207967626073 0.5 L 68.41207967626073 -0.5 L 25 -0.5 Z M 113.97457967626073 0.5 L 157.38665935252146 0.5 L 157.38665935252146 3.5 L 164.38665935252146 0 L 157.38665935252146 -3.5 L 157.38665935252146 -0.5 L 113.97457967626073 -0.5 Z"/><text text-anchor="middle" pointer-events="none" font-size="8px" fill="#000000" x="91.19332967626073" y="3" font-family="Helvetica Neue, Helvetica, Arial, sans-serif">ACTED_IN</text></g><g class="relationship" transform="translate(50.94554996559071 33.330651975349745) rotate(315.8473972438753)"><path class="b-outline" fill="#A5ABB6" stroke="none" d="M 25 0.5 L 53.992739092095036 0.5 L 53.992739092095036 -0.5 L 25 -0.5 Z M 99.55523909209504 0.5 L 128.54797818419007 0.5 L 128.54797818419007 3.5 L 135.54797818419007 0 L 128.54797818419007 -3.5 L 128.54797818419007 -0.5 L 99.55523909209504 -0.5 Z"/><text text-anchor="middle" pointer-events="none" font-size="8px" fill="#000000" x="76.77398909209504" y="3" font-family="Helvetica Neue, Helvetica, Arial, sans-serif">ACTED_IN</text></g><g class="relationship" transform="translate(50.94554996559071 33.330651975349745) rotate(280.14575228341585)"><path class="b-outline" fill="#A5ABB6" stroke="none" d="M 25 0.5 L 54.28700005199791 0.5 L 54.28700005199791 -0.5 L 25 -0.5 Z M 99.84950005199791 0.5 L 129.13650010399581 0.5 L 129.13650010399581 3.5 L 136.13650010399581 0 L 129.13650010399581 -3.5 L 129.13650010399581 -0.5 L 99.84950005199791 -0.5 Z"/><text text-anchor="middle" pointer-events="none" font-size="8px" fill="#000000" x="77.06825005199791" y="3" font-family="Helvetica Neue, Helvetica, Arial, sans-serif">ACTED_IN</text></g><g class="relationship" transform="translate(50.94554996559071 33.330651975349745) rotate(251.9059604007208)"><path class="b-outline" fill="#A5ABB6" stroke="none" d="M 25 0.5 L 76.23240647670627 0.5 L 76.23240647670627 -0.5 L 25 -0.5 Z M 121.79490647670627 0.5 L 173.02731295341255 0.5 L 173.02731295341255 3.5 L 180.02731295341255 0 L 173.02731295341255 -3.5 L 173.02731295341255 -0.5 L 121.79490647670627 -0.5 Z"/><text text-anchor="middle" pointer-events="none" font-size="8px" fill="#000000" x="99.01365647670627" y="3" transform="rotate(180 99.01365647670627 0)" font-family="Helvetica Neue, Helvetica, Arial, sans-serif">ACTED_IN</text></g><g class="relationship" transform="translate(50.94554996559071 33.330651975349745) rotate(242.48256083037188)"><path class="b-outline" fill="#A5ABB6" stroke="none" d="M 25 0.5 L 29.359960674697874 0.5 L 29.359960674697874 -0.5 L 25 -0.5 Z M 74.92246067469787 0.5 L 79.28242134939575 0.5 L 79.28242134939575 3.5 L 86.28242134939575 0 L 79.28242134939575 -3.5 L 79.28242134939575 -0.5 L 74.92246067469787 -0.5 Z"/><text text-anchor="middle" pointer-events="none" font-size="8px" fill="#000000" x="52.141210674697874" y="3" transform="rotate(180 52.141210674697874 0)" font-family="Helvetica Neue, Helvetica, Arial, sans-serif">ACTED_IN</text></g><g class="relationship" transform="translate(50.94554996559071 33.330651975349745) rotate(223.43406453018645)"><path class="b-outline" fill="#A5ABB6" stroke="none" d="M 25 0.5 L 71.77712669393682 0.5 L 71.77712669393682 -0.5 L 25 -0.5 Z M 117.33962669393682 0.5 L 164.11675338787364 0.5 L 164.11675338787364 3.5 L 171.11675338787364 0 L 164.11675338787364 -3.5 L 164.11675338787364 -0.5 L 117.33962669393682 -0.5 Z"/><text text-anchor="middle" pointer-events="none" font-size="8px" fill="#000000" x="94.55837669393682" y="3" transform="rotate(180 94.55837669393682 0)" font-family="Helvetica Neue, Helvetica, Arial, sans-serif">ACTED_IN</text></g><g class="relationship" transform="translate(50.94554996559071 33.330651975349745) rotate(196.27421193650662)"><path class="b-outline" fill="#A5ABB6" stroke="none" d="M 25 0.5 L 41.93268634963577 0.5 L 41.93268634963577 -0.5 L 25 -0.5 Z M 87.49518634963577 0.5 L 104.42787269927155 0.5 L 104.42787269927155 3.5 L 111.42787269927155 0 L 104.42787269927155 -3.5 L 104.42787269927155 -0.5 L 87.49518634963577 -0.5 Z"/><text text-anchor="middle" pointer-events="none" font-size="8px" fill="#000000" x="64.71393634963577" y="3" transform="rotate(180 64.71393634963577 0)" font-family="Helvetica Neue, Helvetica, Arial, sans-serif">ACTED_IN</text></g><g class="relationship" transform="translate(50.94554996559071 33.330651975349745) rotate(528.3603294463821)"><path class="b-outline" fill="#A5ABB6" stroke="none" d="M 25 0.5 L 71.49372871989748 0.5 L 71.49372871989748 -0.5 L 25 -0.5 Z M 117.05622871989748 0.5 L 163.54995743979495 0.5 L 163.54995743979495 3.5 L 170.54995743979495 0 L 163.54995743979495 -3.5 L 163.54995743979495 -0.5 L 117.05622871989748 -0.5 Z"/><text text-anchor="middle" pointer-events="none" font-size="8px" fill="#000000" x="94.27497871989748" y="3" transform="rotate(180 94.27497871989748 0)" font-family="Helvetica Neue, Helvetica, Arial, sans-serif">ACTED_IN</text></g><g class="relationship" transform="translate(50.94554996559071 33.330651975349745) rotate(509.7343118197078)"><path class="b-outline" fill="#A5ABB6" stroke="none" d="M 25 0.5 L 28.71069178979601 0.5 L 28.71069178979601 -0.5 L 25 -0.5 Z M 74.27319178979602 0.5 L 77.98388357959202 0.5 L 77.98388357959202 3.5 L 84.98388357959202 0 L 77.98388357959202 -3.5 L 77.98388357959202 -0.5 L 74.27319178979602 -0.5 Z"/><text text-anchor="middle" pointer-events="none" font-size="8px" fill="#000000" x="51.49194178979601" y="3" transform="rotate(180 51.49194178979601 0)" font-family="Helvetica Neue, Helvetica, Arial, sans-serif">ACTED_IN</text></g><g class="relationship" transform="translate(50.94554996559071 33.330651975349745) rotate(499.6622689195532)"><path class="b-outline" fill="#A5ABB6" stroke="none" d="M 25 0.5 L 75.4789510613207 0.5 L 75.4789510613207 -0.5 L 25 -0.5 Z M 121.0414510613207 0.5 L 171.5204021226414 0.5 L 171.5204021226414 3.5 L 178.5204021226414 0 L 171.5204021226414 -3.5 L 171.5204021226414 -0.5 L 121.0414510613207 -0.5 Z"/><text text-anchor="middle" pointer-events="none" font-size="8px" fill="#000000" x="98.2602010613207" y="3" transform="rotate(180 98.2602010613207 0)" font-family="Helvetica Neue, Helvetica, Arial, sans-serif">ACTED_IN</text></g><g class="relationship" transform="translate(50.94554996559071 33.330651975349745) rotate(471.30944958489874)"><path class="b-outline" fill="#A5ABB6" stroke="none" d="M 25 0.5 L 53.48512607979933 0.5 L 53.48512607979933 -0.5 L 25 -0.5 Z M 99.04762607979933 0.5 L 127.53275215959866 0.5 L 127.53275215959866 3.5 L 134.53275215959866 0 L 127.53275215959866 -3.5 L 127.53275215959866 -0.5 L 99.04762607979933 -0.5 Z"/><text text-anchor="middle" pointer-events="none" font-size="8px" fill="#000000" x="76.26637607979933" y="3" transform="rotate(180 76.26637607979933 0)" font-family="Helvetica Neue, Helvetica, Arial, sans-serif">ACTED_IN</text></g></g><g class="layer nodes"><g class="node" aria-label="graph-node3312" transform="translate(50.94554996559071,33.330651975349745)"><circle class="b-outline" cx="0" cy="0" r="25" fill="#C990C0" stroke="#b261a5" stroke-width="2px"/><text class="caption" text-anchor="middle" pointer-events="none" x="0" y="0" font-size="10px" fill="#FFFFFF" font-family="Helvetica Neue, Helvetica, Arial, sans-serif"> Meryl</text><text class="caption" text-anchor="middle" pointer-events="none" x="0" y="10" font-size="10px" fill="#FFFFFF" font-family="Helvetica Neue, Helvetica, Arial, sans-serif"> Streep</text></g><g class="node" aria-label="graph-node5920" transform="translate(90.13274482492135,191.70950565500763)"><circle class="b-outline" cx="0" cy="0" r="25" fill="#F79767" stroke="#f36924" stroke-width="2px"/><text class="caption" text-anchor="middle" pointer-events="none" x="0" y="-5" font-size="10px" fill="#FFFFFF" font-family="Helvetica Neue, Helvetica, Arial, sans-serif"> Dancing</text><text class="caption" text-anchor="middle" pointer-events="none" x="0" y="5" font-size="10px" fill="#FFFFFF" font-family="Helvetica Neue, Helvetica, Arial, sans-serif"> at</text><text class="caption" text-anchor="middle" pointer-events="none" x="0" y="15" font-size="10px" fill="#FFFFFF" font-family="Helvetica Neue, Helvetica, Arial, sans-serif"> Lug…</text></g><g class="node" aria-label="graph-node6940" transform="translate(184.46571951829023,165.62721274764598)"><circle class="b-outline" cx="0" cy="0" r="25" fill="#F79767" stroke="#f36924" stroke-width="2px"/><text class="caption" text-anchor="middle" pointer-events="none" x="0" y="0" font-size="10px" fill="#FFFFFF" font-family="Helvetica Neue, Helvetica, Arial, sans-serif"> Defending</text><text class="caption" text-anchor="middle" pointer-events="none" x="0" y="10" font-size="10px" fill="#FFFFFF" font-family="Helvetica Neue, Helvetica, Arial, sans-serif"> L…</text></g><g class="node" aria-label="graph-node6346" transform="translate(175.18613714345904,68.41191122132483)"><circle class="b-outline" cx="0" cy="0" r="25" fill="#F79767" stroke="#f36924" stroke-width="2px"/><text class="caption" text-anchor="middle" pointer-events="none" x="0" y="0" font-size="10px" fill="#FFFFFF" font-family="Helvetica Neue, Helvetica, Arial, sans-serif"> Marvin's</text><text class="caption" text-anchor="middle" pointer-events="none" x="0" y="10" font-size="10px" fill="#FFFFFF" font-family="Helvetica Neue, Helvetica, Arial, sans-serif"> Room</text></g><g class="node" aria-label="graph-node7044" transform="translate(235.48835067082706,-9.228265404859)"><circle class="b-outline" cx="0" cy="0" r="25" fill="#F79767" stroke="#f36924" stroke-width="2px"/><text class="caption" text-anchor="middle" pointer-events="none" x="0" y="5" font-size="10px" fill="#FFFFFF" font-family="Helvetica Neue, Helvetica, Arial, sans-serif"> Ironweed</text></g><g class="node" aria-label="graph-node5199" transform="translate(166.1366506308294,-78.50254357302941)"><circle class="b-outline" cx="0" cy="0" r="25" fill="#F79767" stroke="#f36924" stroke-width="2px"/><text class="caption" text-anchor="middle" pointer-events="none" x="0" y="0" font-size="10px" fill="#FFFFFF" font-family="Helvetica Neue, Helvetica, Arial, sans-serif"> Out of</text><text class="caption" text-anchor="middle" pointer-events="none" x="0" y="10" font-size="10px" fill="#FFFFFF" font-family="Helvetica Neue, Helvetica, Arial, sans-serif"> Africa</text></g><g class="node" aria-label="graph-node6851" transform="translate(79.3301994179629,-125.28612942318635)"><circle class="b-outline" cx="0" cy="0" r="25" fill="#F79767" stroke="#f36924" stroke-width="2px"/><text class="caption" text-anchor="middle" pointer-events="none" x="0" y="0" font-size="10px" fill="#FFFFFF" font-family="Helvetica Neue, Helvetica, Arial, sans-serif"> The Deer</text><text class="caption" text-anchor="middle" pointer-events="none" x="0" y="10" font-size="10px" fill="#FFFFFF" font-family="Helvetica Neue, Helvetica, Arial, sans-serif"> Hunter</text></g><g class="node" aria-label="graph-node6126" transform="translate(-12.73132998255709,-161.5576596725419)"><circle class="b-outline" cx="0" cy="0" r="25" fill="#F79767" stroke="#f36924" stroke-width="2px"/><text class="caption" text-anchor="middle" pointer-events="none" x="0" y="0" font-size="10px" fill="#FFFFFF" font-family="Helvetica Neue, Helvetica, Arial, sans-serif"> The River</text><text class="caption" text-anchor="middle" pointer-events="none" x="0" y="10" font-size="10px" fill="#FFFFFF" font-family="Helvetica Neue, Helvetica, Arial, sans-serif"> Wild</text></g><g class="node" aria-label="graph-node7534" transform="translate(-0.4689954520365383,-65.36241678271043)"><circle class="b-outline" cx="0" cy="0" r="25" fill="#F79767" stroke="#f36924" stroke-width="2px"/><text class="caption" text-anchor="middle" pointer-events="none" x="0" y="5" font-size="10px" fill="#FFFFFF" font-family="Helvetica Neue, Helvetica, Arial, sans-serif"> Heartburn</text></g><g class="node" aria-label="graph-node6964" transform="translate(-91.46777676947082,-101.50341392660489)"><circle class="b-outline" cx="0" cy="0" r="25" fill="#F79767" stroke="#f36924" stroke-width="2px"/><text class="caption" text-anchor="middle" pointer-events="none" x="0" y="5" font-size="10px" fill="#FFFFFF" font-family="Helvetica Neue, Helvetica, Arial, sans-serif"> Silkwood</text></g><g class="node" aria-label="graph-node6919" transform="translate(-80.01586511979775,-4.9011699545718495)"><circle class="b-outline" cx="0" cy="0" r="25" fill="#F79767" stroke="#f36924" stroke-width="2px"/><text class="caption" text-anchor="middle" pointer-events="none" x="0" y="-5" font-size="10px" fill="#FFFFFF" font-family="Helvetica Neue, Helvetica, Arial, sans-serif"> Kramer</text><text class="caption" text-anchor="middle" pointer-events="none" x="0" y="5" font-size="10px" fill="#FFFFFF" font-family="Helvetica Neue, Helvetica, Arial, sans-serif"> vs.</text><text class="caption" text-anchor="middle" pointer-events="none" x="0" y="15" font-size="10px" fill="#FFFFFF" font-family="Helvetica Neue, Helvetica, Arial, sans-serif"> Kra…</text></g><g class="node" aria-label="graph-node5238" transform="translate(-140.58307749880956,72.78405127513878)"><circle class="b-outline" cx="0" cy="0" r="25" fill="#F79767" stroke="#f36924" stroke-width="2px"/><text class="caption" text-anchor="middle" pointer-events="none" x="0" y="-5" font-size="10px" fill="#FFFFFF" font-family="Helvetica Neue, Helvetica, Arial, sans-serif"> The</text><text class="caption" text-anchor="middle" pointer-events="none" x="0" y="5" font-size="10px" fill="#FFFFFF" font-family="Helvetica Neue, Helvetica, Arial, sans-serif"> Bridges</text><text class="caption" text-anchor="middle" pointer-events="none" x="0" y="15" font-size="10px" fill="#FFFFFF" font-family="Helvetica Neue, Helvetica, Arial, sans-serif">Ma…</text></g><g class="node" aria-label="graph-node6691" transform="translate(-44.04725909157326,88.76368251381516)"><circle class="b-outline" cx="0" cy="0" r="25" fill="#F79767" stroke="#f36924" stroke-width="2px"/><text class="caption" text-anchor="middle" pointer-events="none" x="0" y="5" font-size="10px" fill="#FFFFFF" font-family="Helvetica Neue, Helvetica, Arial, sans-serif"> She-Devil</text></g><g class="node" aria-label="graph-node6975" transform="translate(-104.18629578043539,165.0677557676862)"><circle class="b-outline" cx="0" cy="0" r="25" fill="#F79767" stroke="#f36924" stroke-width="2px"/><text class="caption" text-anchor="middle" pointer-events="none" x="0" y="-5" font-size="10px" fill="#FFFFFF" font-family="Helvetica Neue, Helvetica, Arial, sans-serif"> The</text><text class="caption" text-anchor="middle" pointer-events="none" x="0" y="5" font-size="10px" fill="#FFFFFF" font-family="Helvetica Neue, Helvetica, Arial, sans-serif"> French</text><text class="caption" text-anchor="middle" pointer-events="none" x="0" y="15" font-size="10px" fill="#FFFFFF" font-family="Helvetica Neue, Helvetica, Arial, sans-serif"> Lieu…</text></g><g class="node" aria-label="graph-node6202" transform="translate(-7.029431643607203,181.95635809319833)"><circle class="b-outline" cx="0" cy="0" r="25" fill="#F79767" stroke="#f36924" stroke-width="2px"/><text class="caption" text-anchor="middle" pointer-events="none" x="0" y="-5" font-size="10px" fill="#FFFFFF" font-family="Helvetica Neue, Helvetica, Arial, sans-serif"> Death</text><text class="caption" text-anchor="middle" pointer-events="none" x="0" y="5" font-size="10px" fill="#FFFFFF" font-family="Helvetica Neue, Helvetica, Arial, sans-serif"> Becomes</text><text class="caption" text-anchor="middle" pointer-events="none" x="0" y="15" font-size="10px" fill="#FFFFFF" font-family="Helvetica Neue, Helvetica, Arial, sans-serif"> Her</text></g></g></svg>