<svg xmlns="http://www.w3.org/2000/svg" width="503.0150146484375" height="512.4640502929688" viewBox="-231.65635681152344 -237.83709716796875 503.0150146484375 512.4640502929688"><title>Neo4j Graph Visualization</title><desc>Created using Neo4j (http://www.neo4j.com/)</desc><g class="layer relationships"><g class="relationship" transform="translate(128.0507147686611 88.2142956989988) rotate(323.3105936290434)"><path class="b-outline" fill="#A5ABB6" stroke="none" d="M 25 0.5 L 44.99314703618731 0.5 L 44.99314703618731 -0.5 L 25 -0.5 Z M 90.55564703618731 0.5 L 110.54879407237462 0.5 L 110.54879407237462 3.5 L 117.54879407237462 0 L 110.54879407237462 -3.5 L 110.54879407237462 -0.5 L 90.55564703618731 -0.5 Z"/><text text-anchor="middle" pointer-events="none" font-size="8px" fill="#000000" x="67.77439703618731" y="3" font-family="Helvetica Neue, Helvetica, Arial, sans-serif">ACTED_IN</text></g><g class="relationship" transform="translate(175.82071597938364 -129.279699975691) rotate(423.30495340470213)"><path class="b-outline" fill="#A5ABB6" stroke="none" d="M 25 0.5 L 47.77453119025081 0.5 L 47.77453119025081 -0.5 L 25 -0.5 Z M 93.33703119025081 0.5 L 116.11156238050162 0.5 L 116.11156238050162 3.5 L 123.11156238050162 0 L 116.11156238050162 -3.5 L 116.11156238050162 -0.5 L 93.33703119025081 -0.5 Z"/><text text-anchor="middle" pointer-events="none" font-size="8px" fill="#000000" x="70.55578119025081" y="3" font-family="Helvetica Neue, Helvetica, Arial, sans-serif">ACTED_IN</text></g><g class="relationship" transform="translate(175.82071597938364 -129.279699975691) rotate(212.4299715952514)"><path class="b-outline" fill="#A5ABB6" stroke="none" d="M 25 0.5 L 47.8956002031032 0.5 L 47.8956002031032 -0.5 L 25 -0.5 Z M 93.4581002031032 0.5 L 116.3537004062064 0.5 L 116.3537004062064 3.5 L 123.3537004062064 0 L 116.3537004062064 -3.5 L 116.3537004062064 -0.5 L 93.4581002031032 -0.5 Z"/><text text-anchor="middle" pointer-events="none" font-size="8px" fill="#000000" x="70.6768502031032" y="3" transform="rotate(180 70.6768502031032 0)" font-family="Helvetica Neue, Helvetica, Arial, sans-serif">ACTED_IN</text></g><g class="relationship" transform="translate(-95.32136443941104 -194.5415526773505) rotate(354.404851741587)"><path class="b-outline" fill="#A5ABB6" stroke="none" d="M 25 0.5 L 47.030285054896694 0.5 L 47.030285054896694 -0.5 L 25 -0.5 Z M 92.5927850548967 0.5 L 114.62307010979339 0.5 L 114.62307010979339 3.5 L 121.62307010979339 0 L 114.62307010979339 -3.5 L 114.62307010979339 -0.5 L 92.5927850548967 -0.5 Z"/><text text-anchor="middle" pointer-events="none" font-size="8px" fill="#000000" x="69.8115350548967" y="3" font-family="Helvetica Neue, Helvetica, Arial, sans-serif">ACTED_IN</text></g><g class="relationship" transform="translate(-95.32136443941104 -194.5415526773505) rotate(493.6848532092701)"><path class="b-outline" fill="#A5ABB6" stroke="none" d="M 25 0.5 L 46.67487932083732 0.5 L 46.67487932083732 -0.5 L 25 -0.5 Z M 92.23737932083732 0.5 L 113.91225864167464 0.5 L 113.91225864167464 3.5 L 120.91225864167464 0 L 113.91225864167464 -3.5 L 113.91225864167464 -0.5 L 92.23737932083732 -0.5 Z"/><text text-anchor="middle" pointer-events="none" font-size="8px" fill="#000000" x="69.45612932083732" y="3" transform="rotate(180 69.45612932083732 0)" font-family="Helvetica Neue, Helvetica, Arial, sans-serif">ACTED_IN</text></g><g class="relationship" transform="translate(-202.65634952917364 56.20619017794669) rotate(272.5841521042789)"><path class="b-outline" fill="#A5ABB6" stroke="none" d="M 25 0.5 L 46.40833335260447 0.5 L 46.40833335260447 -0.5 L 25 -0.5 Z M 91.97083335260447 0.5 L 113.37916670520895 0.5 L 113.37916670520895 3.5 L 120.37916670520895 0 L 113.37916670520895 -3.5 L 113.37916670520895 -0.5 L 91.97083335260447 -0.5 Z"/><text text-anchor="middle" pointer-events="none" font-size="8px" fill="#000000" x="69.18958335260447" y="3" font-family="Helvetica Neue, Helvetica, Arial, sans-serif">ACTED_IN</text></g><g class="relationship" transform="translate(-202.65634952917364 56.20619017794669) rotate(420.76660645975204)"><path class="b-outline" fill="#A5ABB6" stroke="none" d="M 25 0.5 L 46.74913054171441 0.5 L 46.74913054171441 -0.5 L 25 -0.5 Z M 92.31163054171441 0.5 L 114.06076108342882 0.5 L 114.06076108342882 3.5 L 121.06076108342882 0 L 114.06076108342882 -3.5 L 114.06076108342882 -0.5 L 92.31163054171441 -0.5 Z"/><text text-anchor="middle" pointer-events="none" font-size="8px" fill="#000000" x="69.53038054171441" y="3" font-family="Helvetica Neue, Helvetica, Arial, sans-serif">ACTED_IN</text></g><g class="relationship" transform="translate(-2.079403563622013 245.62696016112827) rotate(205.61391319191324)"><path class="b-outline" fill="#A5ABB6" stroke="none" d="M 25 0.5 L 45.38423862528917 0.5 L 45.38423862528917 -0.5 L 25 -0.5 Z M 90.94673862528917 0.5 L 111.33097725057834 0.5 L 111.33097725057834 3.5 L 118.33097725057834 0 L 111.33097725057834 -3.5 L 111.33097725057834 -0.5 L 90.94673862528917 -0.5 Z"/><text text-anchor="middle" pointer-events="none" font-size="8px" fill="#000000" x="68.16548862528917" y="3" transform="rotate(180 68.16548862528917 0)" font-family="Helvetica Neue, Helvetica, Arial, sans-serif">ACTED_IN</text></g></g><g class="layer nodes"><g class="node" aria-label="graph-node314" transform="translate(128.0507147686611,88.2142956989988)"><circle class="b-outline" cx="0" cy="0" r="25" fill="#C990C0" stroke="#b261a5" stroke-width="2px"/><text class="caption" text-anchor="middle" pointer-events="none" x="0" y="0" font-size="10px" fill="#FFFFFF" font-family="Helvetica Neue, Helvetica, Arial, sans-serif"> Ashley</text><text class="caption" text-anchor="middle" pointer-events="none" x="0" y="10" font-size="10px" fill="#FFFFFF" font-family="Helvetica Neue, Helvetica, Arial, sans-serif"> Judd</text></g><g class="node" aria-label="graph-node333" transform="translate(-2.079403563622013,245.62696016112827)"><circle class="b-outline" cx="0" cy="0" r="25" fill="#C990C0" stroke="#b261a5" stroke-width="2px"/><text class="caption" text-anchor="middle" pointer-events="none" x="0" y="0" font-size="10px" fill="#FFFFFF" font-family="Helvetica Neue, Helvetica, Arial, sans-serif"> Ava</text><text class="caption" text-anchor="middle" pointer-events="none" x="0" y="10" font-size="10px" fill="#FFFFFF" font-family="Helvetica Neue, Helvetica, Arial, sans-serif"> Gardner</text></g><g class="node" aria-label="graph-node6231" transform="translate(242.358615250965,3.0446850458088)"><circle class="b-outline" cx="0" cy="0" r="25" fill="#F79767" stroke="#f36924" stroke-width="2px"/><text class="caption" text-anchor="middle" pointer-events="none" x="0" y="0" font-size="10px" fill="#FFFFFF" font-family="Helvetica Neue, Helvetica, Arial, sans-serif"> Kiss the</text><text class="caption" text-anchor="middle" pointer-events="none" x="0" y="10" font-size="10px" fill="#FFFFFF" font-family="Helvetica Neue, Helvetica, Arial, sans-serif"> Girls</text></g><g class="node" aria-label="graph-node3476" transform="translate(175.82071597938364,-129.279699975691)"><circle class="b-outline" cx="0" cy="0" r="25" fill="#C990C0" stroke="#b261a5" stroke-width="2px"/><text class="caption" text-anchor="middle" pointer-events="none" x="0" y="0" font-size="10px" fill="#FFFFFF" font-family="Helvetica Neue, Helvetica, Arial, sans-serif"> Morgan</text><text class="caption" text-anchor="middle" pointer-events="none" x="0" y="10" font-size="10px" fill="#FFFFFF" font-family="Helvetica Neue, Helvetica, Arial, sans-serif"> Freem…</text></g><g class="node" aria-label="graph-node6926" transform="translate(50.60314345724196,-208.83710035979502)"><circle class="b-outline" cx="0" cy="0" r="25" fill="#F79767" stroke="#f36924" stroke-width="2px"/><text class="caption" text-anchor="middle" pointer-events="none" x="0" y="0" font-size="10px" fill="#FFFFFF" font-family="Helvetica Neue, Helvetica, Arial, sans-serif"> Chain</text><text class="caption" text-anchor="middle" pointer-events="none" x="0" y="10" font-size="10px" fill="#FFFFFF" font-family="Helvetica Neue, Helvetica, Arial, sans-serif"> Reacti…</text></g><g class="node" aria-label="graph-node3853" transform="translate(-95.32136443941104,-194.5415526773505)"><circle class="b-outline" cx="0" cy="0" r="25" fill="#C990C0" stroke="#b261a5" stroke-width="2px"/><text class="caption" text-anchor="middle" pointer-events="none" x="0" y="0" font-size="10px" fill="#FFFFFF" font-family="Helvetica Neue, Helvetica, Arial, sans-serif"> Rachel</text><text class="caption" text-anchor="middle" pointer-events="none" x="0" y="10" font-size="10px" fill="#FFFFFF" font-family="Helvetica Neue, Helvetica, Arial, sans-serif"> Weisz</text></g><g class="node" aria-label="graph-node5555" transform="translate(-196.1016865533443,-89.02513738320391)"><circle class="b-outline" cx="0" cy="0" r="25" fill="#F79767" stroke="#f36924" stroke-width="2px"/><text class="caption" text-anchor="middle" pointer-events="none" x="0" y="-5" font-size="10px" fill="#FFFFFF" font-family="Helvetica Neue, Helvetica, Arial, sans-serif"> Swept</text><text class="caption" text-anchor="middle" pointer-events="none" x="0" y="5" font-size="10px" fill="#FFFFFF" font-family="Helvetica Neue, Helvetica, Arial, sans-serif"> from the</text><text class="caption" text-anchor="middle" pointer-events="none" x="0" y="15" font-size="10px" fill="#FFFFFF" font-family="Helvetica Neue, Helvetica, Arial, sans-serif"> Sea</text></g><g class="node" aria-label="graph-node4379" transform="translate(-202.65634952917364,56.20619017794669)"><circle class="b-outline" cx="0" cy="0" r="25" fill="#C990C0" stroke="#b261a5" stroke-width="2px"/><text class="caption" text-anchor="middle" pointer-events="none" x="0" y="0" font-size="10px" fill="#FFFFFF" font-family="Helvetica Neue, Helvetica, Arial, sans-serif"> Sir Ian</text><text class="caption" text-anchor="middle" pointer-events="none" x="0" y="10" font-size="10px" fill="#FFFFFF" font-family="Helvetica Neue, Helvetica, Arial, sans-serif"> McKel…</text></g><g class="node" aria-label="graph-node7405" transform="translate(-131.32489824534483,183.66430088892983)"><circle class="b-outline" cx="0" cy="0" r="25" fill="#F79767" stroke="#f36924" stroke-width="2px"/><text class="caption" text-anchor="middle" pointer-events="none" x="0" y="0" font-size="10px" fill="#FFFFFF" font-family="Helvetica Neue, Helvetica, Arial, sans-serif"> Priest of</text><text class="caption" text-anchor="middle" pointer-events="none" x="0" y="10" font-size="10px" fill="#FFFFFF" font-family="Helvetica Neue, Helvetica, Arial, sans-serif"> Love</text></g></g></svg>