<svg xmlns="http://www.w3.org/2000/svg" width="244.51699829101562" height="167.77078247070312" viewBox="-117.73744201660156 -48.655364990234375 244.51699829101562 167.77078247070312"><title>Neo4j Graph Visualization</title><desc>Created using Neo4j (http://www.neo4j.com/)</desc><g class="layer relationships"><g class="relationship" transform="translate(2.6045651234967178 90.11541935349292) rotate(230.2356215526596)"><path class="b-outline" fill="#A5ABB6" stroke="none" d="M 25 0.5 L 34.90200893499076 0.5 L 34.90200893499076 -0.5 L 25 -0.5 Z M 100.90200893499076 0.5 L 110.80401786998152 0.5 L 110.80401786998152 3.5 L 117.80401786998152 0 L 110.80401786998152 -3.5 L 110.80401786998152 -0.5 L 100.90200893499076 -0.5 Z"/><text text-anchor="middle" pointer-events="none" font-size="8px" fill="#000000" x="67.90200893499076" y="3" transform="rotate(180 67.90200893499076 0)" font-family="Helvetica Neue, Helvetica, Arial, sans-serif">FRIENDS_WITH</text></g><g class="relationship" transform="translate(2.6045651234967178 90.11541935349292) rotate(311.61710786483866)"><path class="b-outline" fill="#A5ABB6" stroke="none" d="M 25 0.5 L 35.15178550108905 0.5 L 35.15178550108905 -0.5 L 25 -0.5 Z M 101.15178550108905 0.5 L 111.3035710021781 0.5 L 111.3035710021781 3.5 L 118.3035710021781 0 L 111.3035710021781 -3.5 L 111.3035710021781 -0.5 L 101.15178550108905 -0.5 Z"/><text text-anchor="middle" pointer-events="none" font-size="8px" fill="#000000" x="68.15178550108905" y="3" font-family="Helvetica Neue, Helvetica, Arial, sans-serif">FRIENDS_WITH</text></g></g><g class="layer nodes"><g class="node" aria-label="graph-node7865" transform="translate(2.6045651234967178,90.11541935349292)"><circle class="b-outline" cx="0" cy="0" r="25" fill="#F16667" stroke="#eb2728" stroke-width="2px"/><text class="caption" text-anchor="middle" pointer-events="none" x="0" y="5" font-size="10px" fill="#FFFFFF" font-family="Helvetica Neue, Helvetica, Arial, sans-serif"> Joe</text></g><g class="node" aria-label="graph-node7868" transform="translate(97.779555425906,-17.018304015540615)"><circle class="b-outline" cx="0" cy="0" r="25" fill="#F16667" stroke="#eb2728" stroke-width="2px"/><text class="caption" text-anchor="middle" pointer-events="none" x="0" y="5" font-size="10px" fill="#FFFFFF" font-family="Helvetica Neue, Helvetica, Arial, sans-serif"> Jill</text></g><g class="node" aria-label="graph-node7866" transform="translate(-88.73744353313636,-19.655364438833058)"><circle class="b-outline" cx="0" cy="0" r="25" fill="#F16667" stroke="#eb2728" stroke-width="2px"/><text class="caption" text-anchor="middle" pointer-events="none" x="0" y="5" font-size="10px" fill="#FFFFFF" font-family="Helvetica Neue, Helvetica, Arial, sans-serif"> Jack</text></g></g></svg>