<svg xmlns="http://www.w3.org/2000/svg" width="411.65203857421875" height="429.3489074707031" viewBox="-233.3651123046875 -213.66656494140625 411.65203857421875 429.3489074707031"><title>Neo4j Graph Visualization</title><desc>Created using Neo4j (http://www.neo4j.com/)</desc><g class="layer relationships"><g class="relationship" transform="translate(7.684270099929945 161.96274720825957) rotate(369.90234474887967)"><path class="b-outline" fill="#A5ABB6" stroke="none" d="M 25 0.5 L 54.03223159184823 0.5 L 54.03223159184823 -0.5 L 25 -0.5 Z M 82.71191909184823 0.5 L 111.74415068369646 0.5 L 111.74415068369646 3.5 L 118.74415068369646 0 L 111.74415068369646 -3.5 L 111.74415068369646 -0.5 L 82.71191909184823 -0.5 Z"/><text text-anchor="middle" pointer-events="none" font-size="8px" fill="#000000" x="68.37207534184823" y="3" font-family="Helvetica Neue, Helvetica, Arial, sans-serif">LIKES</text></g><g class="relationship" transform="translate(7.684270099929945 161.96274720825957) rotate(320.0400267076579)"><path class="b-outline" fill="#A5ABB6" stroke="none" d="M 25 0.5 L 55.97039382830616 0.5 L 55.97039382830616 -0.5 L 25 -0.5 Z M 84.65008132830616 0.5 L 115.62047515661232 0.5 L 115.62047515661232 3.5 L 122.62047515661232 0 L 115.62047515661232 -3.5 L 115.62047515661232 -0.5 L 84.65008132830616 -0.5 Z"/><text text-anchor="middle" pointer-events="none" font-size="8px" fill="#000000" x="70.31023757830616" y="3" font-family="Helvetica Neue, Helvetica, Arial, sans-serif">LIKES</text></g><g class="relationship" transform="translate(7.684270099929945 161.96274720825957) rotate(275.58255138279594)"><path class="b-outline" fill="#A5ABB6" stroke="none" d="M 25 0.5 L 54.253103470374654 0.5 L 54.253103470374654 -0.5 L 25 -0.5 Z M 82.93279097037465 0.5 L 112.18589444074931 0.5 L 112.18589444074931 3.5 L 119.18589444074931 0 L 112.18589444074931 -3.5 L 112.18589444074931 -0.5 L 82.93279097037465 -0.5 Z"/><text text-anchor="middle" pointer-events="none" font-size="8px" fill="#000000" x="68.59294722037465" y="3" font-family="Helvetica Neue, Helvetica, Arial, sans-serif">LIKES</text></g><g class="relationship" transform="translate(-72.48594868234152 -184.66656610288115) rotate(515.5304145755873)"><path class="b-outline" fill="#A5ABB6" stroke="none" d="M 25 0.5 L 54.6068044703038 0.5 L 54.6068044703038 -0.5 L 25 -0.5 Z M 83.2864919703038 0.5 L 112.8932964406076 0.5 L 112.8932964406076 3.5 L 119.8932964406076 0 L 112.8932964406076 -3.5 L 112.8932964406076 -0.5 L 83.2864919703038 -0.5 Z"/><text text-anchor="middle" pointer-events="none" font-size="8px" fill="#000000" x="68.9466482203038" y="3" transform="rotate(180 68.9466482203038 0)" font-family="Helvetica Neue, Helvetica, Arial, sans-serif">LIKES</text></g><g class="relationship" transform="translate(-72.48594868234152 -184.66656610288115) rotate(465.05198249147804)"><path class="b-outline" fill="#A5ABB6" stroke="none" d="M 25 0.5 L 54.30260785877594 0.5 L 54.30260785877594 -0.5 L 25 -0.5 Z M 82.98229535877594 0.5 L 112.28490321755189 0.5 L 112.28490321755189 3.5 L 119.28490321755189 0 L 112.28490321755189 -3.5 L 112.28490321755189 -0.5 L 82.98229535877594 -0.5 Z"/><text text-anchor="middle" pointer-events="none" font-size="8px" fill="#000000" x="68.64245160877594" y="3" transform="rotate(180 68.64245160877594 0)" font-family="Helvetica Neue, Helvetica, Arial, sans-serif">LIKES</text></g></g><g class="layer nodes"><g class="node" aria-label="graph-node7866" transform="translate(7.684270099929945,161.96274720825957)"><circle class="b-outline" cx="0" cy="0" r="25" fill="#F16667" stroke="#eb2728" stroke-width="2px"/><text class="caption" text-anchor="middle" pointer-events="none" x="0" y="5" font-size="10px" fill="#FFFFFF" font-family="Helvetica Neue, Helvetica, Arial, sans-serif"> Jack</text></g><g class="node" aria-label="graph-node5193" transform="translate(149.28696202258865,186.68234461666881)"><circle class="b-outline" cx="0" cy="0" r="25" fill="#F79767" stroke="#f36924" stroke-width="2px"/><text class="caption" text-anchor="middle" pointer-events="none" x="0" y="5" font-size="10px" fill="#FFFFFF" font-family="Helvetica Neue, Helvetica, Arial, sans-serif"> Titanic</text></g><g class="node" aria-label="graph-node5204" transform="translate(120.83437616357514,67.15315811912876)"><circle class="b-outline" cx="0" cy="0" r="25" fill="#F79767" stroke="#f36924" stroke-width="2px"/><text class="caption" text-anchor="middle" pointer-events="none" x="0" y="5" font-size="10px" fill="#FFFFFF" font-family="Helvetica Neue, Helvetica, Arial, sans-serif"> Ghostbu…</text></g><g class="node" aria-label="graph-node5561" transform="translate(21.710646926208753,18.460716181496288)"><circle class="b-outline" cx="0" cy="0" r="25" fill="#F79767" stroke="#f36924" stroke-width="2px"/><text class="caption" text-anchor="middle" pointer-events="none" x="0" y="5" font-size="10px" fill="#FFFFFF" font-family="Helvetica Neue, Helvetica, Arial, sans-serif"> Sister Act</text></g><g class="node" aria-label="graph-node7868" transform="translate(-72.48594868234152,-184.66656610288115)"><circle class="b-outline" cx="0" cy="0" r="25" fill="#F16667" stroke="#eb2728" stroke-width="2px"/><text class="caption" text-anchor="middle" pointer-events="none" x="0" y="5" font-size="10px" fill="#FFFFFF" font-family="Helvetica Neue, Helvetica, Arial, sans-serif"> Jill</text></g><g class="node" aria-label="graph-node5603" transform="translate(-204.36511413978624,-124.65029271246053)"><circle class="b-outline" cx="0" cy="0" r="25" fill="#F79767" stroke="#f36924" stroke-width="2px"/><text class="caption" text-anchor="middle" pointer-events="none" x="0" y="5" font-size="10px" fill="#FFFFFF" font-family="Helvetica Neue, Helvetica, Arial, sans-serif"> Stargate</text></g><g class="node" aria-label="graph-node5004" transform="translate(-109.956058432043,-45.33198973418634)"><circle class="b-outline" cx="0" cy="0" r="25" fill="#F79767" stroke="#f36924" stroke-width="2px"/><text class="caption" text-anchor="middle" pointer-events="none" x="0" y="5" font-size="10px" fill="#FFFFFF" font-family="Helvetica Neue, Helvetica, Arial, sans-serif"> Star Wars</text></g></g></svg>